<svg aria-roledescription="er" role="graphics-document document" viewBox="0 0 725.046875 496" style="max-width: 725.047px; background-color: white;" xmlns:xlink="http://www.w3.org/1999/xlink" xmlns="http://www.w3.org/2000/svg" width="100%" id="my-svg"><style>#my-svg{font-family:"trebuchet ms",verdana,arial,sans-serif;font-size:16px;fill:#333;}#my-svg .error-icon{fill:#552222;}#my-svg .error-text{fill:#552222;stroke:#552222;}#my-svg .edge-thickness-normal{stroke-width:2px;}#my-svg .edge-thickness-thick{stroke-width:3.5px;}#my-svg .edge-pattern-solid{stroke-dasharray:0;}#my-svg .edge-pattern-dashed{stroke-dasharray:3;}#my-svg .edge-pattern-dotted{stroke-dasharray:2;}#my-svg .marker{fill:#333333;stroke:#333333;}#my-svg .marker.cross{stroke:#333333;}#my-svg svg{font-family:"trebuchet ms",verdana,arial,sans-serif;font-size:16px;}#my-svg .entityBox{fill:#ECECFF;stroke:#9370DB;}#my-svg .attributeBoxOdd{fill:#ffffff;stroke:#9370DB;}#my-svg .attributeBoxEven{fill:#f2f2f2;stroke:#9370DB;}#my-svg .relationshipLabelBox{fill:hsl(80, 100%, 96.2745098039%);opacity:0.7;background-color:hsl(80, 100%, 96.2745098039%);}#my-svg .relationshipLabelBox rect{opacity:0.5;}#my-svg .relationshipLine{stroke:#333333;}#my-svg .entityTitleText{text-anchor:middle;font-size:18px;fill:#333;}#my-svg #MD_PARENT_START{fill:#f5f5f5!important;stroke:#333333!important;stroke-width:1;}#my-svg #MD_PARENT_END{fill:#f5f5f5!important;stroke:#333333!important;stroke-width:1;}#my-svg :root{--mermaid-font-family:"trebuchet ms",verdana,arial,sans-serif;}</style><g/><defs><marker orient="auto" markerHeight="240" markerWidth="190" refY="7" refX="0" id="MD_PARENT_START"><path d="M 18,7 L9,13 L1,7 L9,1 Z"/></marker></defs><defs><marker orient="auto" markerHeight="28" markerWidth="20" refY="7" refX="19" id="MD_PARENT_END"><path d="M 18,7 L9,13 L1,7 L9,1 Z"/></marker></defs><defs><marker orient="auto" markerHeight="18" markerWidth="18" refY="9" refX="0" id="ONLY_ONE_START"><path d="M9,0 L9,18 M15,0 L15,18" fill="none" stroke="gray"/></marker></defs><defs><marker orient="auto" markerHeight="18" markerWidth="18" refY="9" refX="18" id="ONLY_ONE_END"><path d="M3,0 L3,18 M9,0 L9,18" fill="none" stroke="gray"/></marker></defs><defs><marker orient="auto" markerHeight="18" markerWidth="30" refY="9" refX="0" id="ZERO_OR_ONE_START"><circle r="6" cy="9" cx="21" fill="white" stroke="gray"/><path d="M9,0 L9,18" fill="none" stroke="gray"/></marker></defs><defs><marker orient="auto" markerHeight="18" markerWidth="30" refY="9" refX="30" id="ZERO_OR_ONE_END"><circle r="6" cy="9" cx="9" fill="white" stroke="gray"/><path d="M21,0 L21,18" fill="none" stroke="gray"/></marker></defs><defs><marker orient="auto" markerHeight="36" markerWidth="45" refY="18" refX="18" id="ONE_OR_MORE_START"><path d="M0,18 Q 18,0 36,18 Q 18,36 0,18 M42,9 L42,27" fill="none" stroke="gray"/></marker></defs><defs><marker orient="auto" markerHeight="36" markerWidth="45" refY="18" refX="27" id="ONE_OR_MORE_END"><path d="M3,9 L3,27 M9,18 Q27,0 45,18 Q27,36 9,18" fill="none" stroke="gray"/></marker></defs><defs><marker orient="auto" markerHeight="36" markerWidth="57" refY="18" refX="18" id="ZERO_OR_MORE_START"><circle r="6" cy="18" cx="48" fill="white" stroke="gray"/><path d="M0,18 Q18,0 36,18 Q18,36 0,18" fill="none" stroke="gray"/></marker></defs><defs><marker orient="auto" markerHeight="36" markerWidth="57" refY="18" refX="39" id="ZERO_OR_MORE_END"><circle r="6" cy="18" cx="9" fill="white" stroke="gray"/><path d="M21,18 Q39,0 57,18 Q39,36 21,18" fill="none" stroke="gray"/></marker></defs><path style="stroke: gray; fill: none;" marker-start="url(#ZERO_OR_ONE_START)" marker-end="url(#ONLY_ONE_END)" d="M122.30859375,176L122.30859375,188C122.30859375,200,122.30859375,224,153.44921875,251.63666638444388C184.58984375,279.27333276888777,246.87109375,310.5466655377755,278.01171875,326.1833319222194L309.15234375,341.81999830666325" class="er relationshipLine"/><path style="stroke: gray; fill: none;" marker-start="url(#ZERO_OR_ONE_START)" marker-end="url(#ONLY_ONE_END)" d="M399.12890625,198L399.12890625,206.33333333333334C399.12890625,214.66666666666666,399.12890625,231.33333333333334,399.12890625,248C399.12890625,264.6666666666667,399.12890625,281.3333333333333,399.12890625,289.6666666666667L399.12890625,298" class="er relationshipLine"/><path style="stroke: gray; fill: none;" marker-start="url(#ZERO_OR_MORE_START)" marker-end="url(#ONLY_ONE_END)" d="M639.34375,165L639.34375,178.83333333333334C639.34375,192.66666666666666,639.34375,220.33333333333334,614.3040364583334,248.65586362034855C589.2643229166666,276.97839390736374,539.1848958333334,305.9567878147275,514.1451822916666,320.44598476840935L489.10546875,334.9351817220912" class="er relationshipLine"/><g transform="translate(309.15234375,298 )" id="entity-users-33ae1e26-be31-5c1d-bf65-e859e9d0308e"><rect height="178" width="179.953125" y="0" x="0" class="er entityBox"/><text style="dominant-baseline: middle; text-anchor: middle; font-size: 12px;" transform="translate(89.9765625,12)" y="0" x="0" id="text-entity-users-33ae1e26-be31-5c1d-bf65-e859e9d0308e" class="er entityLabel">users</text><rect height="22" width="49.84375" y="24" x="0" class="er attributeBoxOdd"/><text style="dominant-baseline: middle; font-size: 10.2px;" transform="translate(5,35)" y="0" x="0" id="text-entity-users-33ae1e26-be31-5c1d-bf65-e859e9d0308e-attr-1-type" class="er entityLabel">Int</text><rect height="22" width="60.8359375" y="24" x="49.84375" class="er attributeBoxOdd"/><text style="dominant-baseline: middle; font-size: 10.2px;" transform="translate(54.84375,35)" y="0" x="0" id="text-entity-users-33ae1e26-be31-5c1d-bf65-e859e9d0308e-attr-1-name" class="er entityLabel">id</text><rect height="22" width="22.4921875" y="24" x="110.6796875" class="er attributeBoxOdd"/><text style="dominant-baseline: middle; font-size: 10.2px;" transform="translate(115.6796875,35)" y="0" x="0" id="text-entity-users-33ae1e26-be31-5c1d-bf65-e859e9d0308e-attr-1-key" class="er entityLabel">PK</text><rect height="22" width="46.78125" y="24" x="133.171875" class="er attributeBoxOdd"/><text style="dominant-baseline: middle; font-size: 10.2px;" transform="translate(138.171875,35)" y="0" x="0" id="text-entity-users-33ae1e26-be31-5c1d-bf65-e859e9d0308e-attr-1-comment" class="er entityLabel"/><rect height="22" width="49.84375" y="46" x="0" class="er attributeBoxEven"/><text style="dominant-baseline: middle; font-size: 10.2px;" transform="translate(5,57)" y="0" x="0" id="text-entity-users-33ae1e26-be31-5c1d-bf65-e859e9d0308e-attr-2-type" class="er entityLabel">String</text><rect height="22" width="60.8359375" y="46" x="49.84375" class="er attributeBoxEven"/><text style="dominant-baseline: middle; font-size: 10.2px;" transform="translate(54.84375,57)" y="0" x="0" id="text-entity-users-33ae1e26-be31-5c1d-bf65-e859e9d0308e-attr-2-name" class="er entityLabel">first_name</text><rect height="22" width="22.4921875" y="46" x="110.6796875" class="er attributeBoxEven"/><text style="dominant-baseline: middle; font-size: 10.2px;" transform="translate(115.6796875,57)" y="0" x="0" id="text-entity-users-33ae1e26-be31-5c1d-bf65-e859e9d0308e-attr-2-key" class="er entityLabel"/><rect height="22" width="46.78125" y="46" x="133.171875" class="er attributeBoxEven"/><text style="dominant-baseline: middle; font-size: 10.2px;" transform="translate(138.171875,57)" y="0" x="0" id="text-entity-users-33ae1e26-be31-5c1d-bf65-e859e9d0308e-attr-2-comment" class="er entityLabel"/><rect height="22" width="49.84375" y="68" x="0" class="er attributeBoxOdd"/><text style="dominant-baseline: middle; font-size: 10.2px;" transform="translate(5,79)" y="0" x="0" id="text-entity-users-33ae1e26-be31-5c1d-bf65-e859e9d0308e-attr-3-type" class="er entityLabel">String</text><rect height="22" width="60.8359375" y="68" x="49.84375" class="er attributeBoxOdd"/><text style="dominant-baseline: middle; font-size: 10.2px;" transform="translate(54.84375,79)" y="0" x="0" id="text-entity-users-33ae1e26-be31-5c1d-bf65-e859e9d0308e-attr-3-name" class="er entityLabel">last_name</text><rect height="22" width="22.4921875" y="68" x="110.6796875" class="er attributeBoxOdd"/><text style="dominant-baseline: middle; font-size: 10.2px;" transform="translate(115.6796875,79)" y="0" x="0" id="text-entity-users-33ae1e26-be31-5c1d-bf65-e859e9d0308e-attr-3-key" class="er entityLabel"/><rect height="22" width="46.78125" y="68" x="133.171875" class="er attributeBoxOdd"/><text style="dominant-baseline: middle; font-size: 10.2px;" transform="translate(138.171875,79)" y="0" x="0" id="text-entity-users-33ae1e26-be31-5c1d-bf65-e859e9d0308e-attr-3-comment" class="er entityLabel"/><rect height="22" width="49.84375" y="90" x="0" class="er attributeBoxEven"/><text style="dominant-baseline: middle; font-size: 10.2px;" transform="translate(5,101)" y="0" x="0" id="text-entity-users-33ae1e26-be31-5c1d-bf65-e859e9d0308e-attr-4-type" class="er entityLabel">String</text><rect height="22" width="60.8359375" y="90" x="49.84375" class="er attributeBoxEven"/><text style="dominant-baseline: middle; font-size: 10.2px;" transform="translate(54.84375,101)" y="0" x="0" id="text-entity-users-33ae1e26-be31-5c1d-bf65-e859e9d0308e-attr-4-name" class="er entityLabel">email</text><rect height="22" width="22.4921875" y="90" x="110.6796875" class="er attributeBoxEven"/><text style="dominant-baseline: middle; font-size: 10.2px;" transform="translate(115.6796875,101)" y="0" x="0" id="text-entity-users-33ae1e26-be31-5c1d-bf65-e859e9d0308e-attr-4-key" class="er entityLabel"/><rect height="22" width="46.78125" y="90" x="133.171875" class="er attributeBoxEven"/><text style="dominant-baseline: middle; font-size: 10.2px;" transform="translate(138.171875,101)" y="0" x="0" id="text-entity-users-33ae1e26-be31-5c1d-bf65-e859e9d0308e-attr-4-comment" class="er entityLabel"/><rect height="22" width="49.84375" y="112" x="0" class="er attributeBoxOdd"/><text style="dominant-baseline: middle; font-size: 10.2px;" transform="translate(5,123)" y="0" x="0" id="text-entity-users-33ae1e26-be31-5c1d-bf65-e859e9d0308e-attr-5-type" class="er entityLabel">String</text><rect height="22" width="60.8359375" y="112" x="49.84375" class="er attributeBoxOdd"/><text style="dominant-baseline: middle; font-size: 10.2px;" transform="translate(54.84375,123)" y="0" x="0" id="text-entity-users-33ae1e26-be31-5c1d-bf65-e859e9d0308e-attr-5-name" class="er entityLabel">auth_id</text><rect height="22" width="22.4921875" y="112" x="110.6796875" class="er attributeBoxOdd"/><text style="dominant-baseline: middle; font-size: 10.2px;" transform="translate(115.6796875,123)" y="0" x="0" id="text-entity-users-33ae1e26-be31-5c1d-bf65-e859e9d0308e-attr-5-key" class="er entityLabel">UK</text><rect height="22" width="46.78125" y="112" x="133.171875" class="er attributeBoxOdd"/><text style="dominant-baseline: middle; font-size: 10.2px;" transform="translate(138.171875,123)" y="0" x="0" id="text-entity-users-33ae1e26-be31-5c1d-bf65-e859e9d0308e-attr-5-comment" class="er entityLabel">nullable</text><rect height="22" width="49.84375" y="134" x="0" class="er attributeBoxEven"/><text style="dominant-baseline: middle; font-size: 10.2px;" transform="translate(5,145)" y="0" x="0" id="text-entity-users-33ae1e26-be31-5c1d-bf65-e859e9d0308e-attr-6-type" class="er entityLabel">UserRole</text><rect height="22" width="60.8359375" y="134" x="49.84375" class="er attributeBoxEven"/><text style="dominant-baseline: middle; font-size: 10.2px;" transform="translate(54.84375,145)" y="0" x="0" id="text-entity-users-33ae1e26-be31-5c1d-bf65-e859e9d0308e-attr-6-name" class="er entityLabel">roles</text><rect height="22" width="22.4921875" y="134" x="110.6796875" class="er attributeBoxEven"/><text style="dominant-baseline: middle; font-size: 10.2px;" transform="translate(115.6796875,145)" y="0" x="0" id="text-entity-users-33ae1e26-be31-5c1d-bf65-e859e9d0308e-attr-6-key" class="er entityLabel"/><rect height="22" width="46.78125" y="134" x="133.171875" class="er attributeBoxEven"/><text style="dominant-baseline: middle; font-size: 10.2px;" transform="translate(138.171875,145)" y="0" x="0" id="text-entity-users-33ae1e26-be31-5c1d-bf65-e859e9d0308e-attr-6-comment" class="er entityLabel"/><rect height="22" width="49.84375" y="156" x="0" class="er attributeBoxOdd"/><text style="dominant-baseline: middle; font-size: 10.2px;" transform="translate(5,167)" y="0" x="0" id="text-entity-users-33ae1e26-be31-5c1d-bf65-e859e9d0308e-attr-7-type" class="er entityLabel">Int</text><rect height="22" width="60.8359375" y="156" x="49.84375" class="er attributeBoxOdd"/><text style="dominant-baseline: middle; font-size: 10.2px;" transform="translate(54.84375,167)" y="0" x="0" id="text-entity-users-33ae1e26-be31-5c1d-bf65-e859e9d0308e-attr-7-name" class="er entityLabel">location_id</text><rect height="22" width="22.4921875" y="156" x="110.6796875" class="er attributeBoxOdd"/><text style="dominant-baseline: middle; font-size: 10.2px;" transform="translate(115.6796875,167)" y="0" x="0" id="text-entity-users-33ae1e26-be31-5c1d-bf65-e859e9d0308e-attr-7-key" class="er entityLabel">FK</text><rect height="22" width="46.78125" y="156" x="133.171875" class="er attributeBoxOdd"/><text style="dominant-baseline: middle; font-size: 10.2px;" transform="translate(138.171875,167)" y="0" x="0" id="text-entity-users-33ae1e26-be31-5c1d-bf65-e859e9d0308e-attr-7-comment" class="er entityLabel"/></g><g transform="translate(20,42 )" id="entity-profiles-8eaad775-72ce-510d-9b3d-a47240e82dfc"><rect height="134" width="204.6171875" y="0" x="0" class="er entityBox"/><text style="dominant-baseline: middle; text-anchor: middle; font-size: 12px;" transform="translate(102.30859375,12)" y="0" x="0" id="text-entity-profiles-8eaad775-72ce-510d-9b3d-a47240e82dfc" class="er entityLabel">profiles</text><rect height="22" width="36.5234375" y="24" x="0" class="er attributeBoxOdd"/><text style="dominant-baseline: middle; font-size: 10.2px;" transform="translate(5,35)" y="0" x="0" id="text-entity-profiles-8eaad775-72ce-510d-9b3d-a47240e82dfc-attr-1-type" class="er entityLabel">Int</text><rect height="22" width="99.75" y="24" x="36.5234375" class="er attributeBoxOdd"/><text style="dominant-baseline: middle; font-size: 10.2px;" transform="translate(41.5234375,35)" y="0" x="0" id="text-entity-profiles-8eaad775-72ce-510d-9b3d-a47240e82dfc-attr-1-name" class="er entityLabel">id</text><rect height="22" width="21.5625" y="24" x="136.2734375" class="er attributeBoxOdd"/><text style="dominant-baseline: middle; font-size: 10.2px;" transform="translate(141.2734375,35)" y="0" x="0" id="text-entity-profiles-8eaad775-72ce-510d-9b3d-a47240e82dfc-attr-1-key" class="er entityLabel">PK</text><rect height="22" width="46.78125" y="24" x="157.8359375" class="er attributeBoxOdd"/><text style="dominant-baseline: middle; font-size: 10.2px;" transform="translate(162.8359375,35)" y="0" x="0" id="text-entity-profiles-8eaad775-72ce-510d-9b3d-a47240e82dfc-attr-1-comment" class="er entityLabel"/><rect height="22" width="36.5234375" y="46" x="0" class="er attributeBoxEven"/><text style="dominant-baseline: middle; font-size: 10.2px;" transform="translate(5,57)" y="0" x="0" id="text-entity-profiles-8eaad775-72ce-510d-9b3d-a47240e82dfc-attr-2-type" class="er entityLabel">Int</text><rect height="22" width="99.75" y="46" x="36.5234375" class="er attributeBoxEven"/><text style="dominant-baseline: middle; font-size: 10.2px;" transform="translate(41.5234375,57)" y="0" x="0" id="text-entity-profiles-8eaad775-72ce-510d-9b3d-a47240e82dfc-attr-2-name" class="er entityLabel">user_id</text><rect height="22" width="21.5625" y="46" x="136.2734375" class="er attributeBoxEven"/><text style="dominant-baseline: middle; font-size: 10.2px;" transform="translate(141.2734375,57)" y="0" x="0" id="text-entity-profiles-8eaad775-72ce-510d-9b3d-a47240e82dfc-attr-2-key" class="er entityLabel">FK</text><rect height="22" width="46.78125" y="46" x="157.8359375" class="er attributeBoxEven"/><text style="dominant-baseline: middle; font-size: 10.2px;" transform="translate(162.8359375,57)" y="0" x="0" id="text-entity-profiles-8eaad775-72ce-510d-9b3d-a47240e82dfc-attr-2-comment" class="er entityLabel"/><rect height="22" width="36.5234375" y="68" x="0" class="er attributeBoxOdd"/><text style="dominant-baseline: middle; font-size: 10.2px;" transform="translate(5,79)" y="0" x="0" id="text-entity-profiles-8eaad775-72ce-510d-9b3d-a47240e82dfc-attr-3-type" class="er entityLabel">String</text><rect height="22" width="99.75" y="68" x="36.5234375" class="er attributeBoxOdd"/><text style="dominant-baseline: middle; font-size: 10.2px;" transform="translate(41.5234375,79)" y="0" x="0" id="text-entity-profiles-8eaad775-72ce-510d-9b3d-a47240e82dfc-attr-3-name" class="er entityLabel">profile_picture</text><rect height="22" width="21.5625" y="68" x="136.2734375" class="er attributeBoxOdd"/><text style="dominant-baseline: middle; font-size: 10.2px;" transform="translate(141.2734375,79)" y="0" x="0" id="text-entity-profiles-8eaad775-72ce-510d-9b3d-a47240e82dfc-attr-3-key" class="er entityLabel"/><rect height="22" width="46.78125" y="68" x="157.8359375" class="er attributeBoxOdd"/><text style="dominant-baseline: middle; font-size: 10.2px;" transform="translate(162.8359375,79)" y="0" x="0" id="text-entity-profiles-8eaad775-72ce-510d-9b3d-a47240e82dfc-attr-3-comment" class="er entityLabel">nullable</text><rect height="22" width="36.5234375" y="90" x="0" class="er attributeBoxEven"/><text style="dominant-baseline: middle; font-size: 10.2px;" transform="translate(5,101)" y="0" x="0" id="text-entity-profiles-8eaad775-72ce-510d-9b3d-a47240e82dfc-attr-4-type" class="er entityLabel">String</text><rect height="22" width="99.75" y="90" x="36.5234375" class="er attributeBoxEven"/><text style="dominant-baseline: middle; font-size: 10.2px;" transform="translate(41.5234375,101)" y="0" x="0" id="text-entity-profiles-8eaad775-72ce-510d-9b3d-a47240e82dfc-attr-4-name" class="er entityLabel">preferred_language</text><rect height="22" width="21.5625" y="90" x="136.2734375" class="er attributeBoxEven"/><text style="dominant-baseline: middle; font-size: 10.2px;" transform="translate(141.2734375,101)" y="0" x="0" id="text-entity-profiles-8eaad775-72ce-510d-9b3d-a47240e82dfc-attr-4-key" class="er entityLabel"/><rect height="22" width="46.78125" y="90" x="157.8359375" class="er attributeBoxEven"/><text style="dominant-baseline: middle; font-size: 10.2px;" transform="translate(162.8359375,101)" y="0" x="0" id="text-entity-profiles-8eaad775-72ce-510d-9b3d-a47240e82dfc-attr-4-comment" class="er entityLabel"/><rect height="22" width="36.5234375" y="112" x="0" class="er attributeBoxOdd"/><text style="dominant-baseline: middle; font-size: 10.2px;" transform="translate(5,123)" y="0" x="0" id="text-entity-profiles-8eaad775-72ce-510d-9b3d-a47240e82dfc-attr-5-type" class="er entityLabel">Json</text><rect height="22" width="99.75" y="112" x="36.5234375" class="er attributeBoxOdd"/><text style="dominant-baseline: middle; font-size: 10.2px;" transform="translate(41.5234375,123)" y="0" x="0" id="text-entity-profiles-8eaad775-72ce-510d-9b3d-a47240e82dfc-attr-5-name" class="er entityLabel">settings</text><rect height="22" width="21.5625" y="112" x="136.2734375" class="er attributeBoxOdd"/><text style="dominant-baseline: middle; font-size: 10.2px;" transform="translate(141.2734375,123)" y="0" x="0" id="text-entity-profiles-8eaad775-72ce-510d-9b3d-a47240e82dfc-attr-5-key" class="er entityLabel"/><rect height="22" width="46.78125" y="112" x="157.8359375" class="er attributeBoxOdd"/><text style="dominant-baseline: middle; font-size: 10.2px;" transform="translate(162.8359375,123)" y="0" x="0" id="text-entity-profiles-8eaad775-72ce-510d-9b3d-a47240e82dfc-attr-5-comment" class="er entityLabel">nullable</text></g><g transform="translate(324.6171875,20 )" id="entity-addresses-f674a2cf-3b50-59b9-817e-69ab842a4d68"><rect height="178" width="149.0234375" y="0" x="0" class="er entityBox"/><text style="dominant-baseline: middle; text-anchor: middle; font-size: 12px;" transform="translate(74.51171875,12)" y="0" x="0" id="text-entity-addresses-f674a2cf-3b50-59b9-817e-69ab842a4d68" class="er entityLabel">addresses</text><rect height="22" width="36.5234375" y="24" x="0" class="er attributeBoxOdd"/><text style="dominant-baseline: middle; font-size: 10.2px;" transform="translate(5,35)" y="0" x="0" id="text-entity-addresses-f674a2cf-3b50-59b9-817e-69ab842a4d68-attr-1-type" class="er entityLabel">Int</text><rect height="22" width="44.15625" y="24" x="36.5234375" class="er attributeBoxOdd"/><text style="dominant-baseline: middle; font-size: 10.2px;" transform="translate(41.5234375,35)" y="0" x="0" id="text-entity-addresses-f674a2cf-3b50-59b9-817e-69ab842a4d68-attr-1-name" class="er entityLabel">id</text><rect height="22" width="21.5625" y="24" x="80.6796875" class="er attributeBoxOdd"/><text style="dominant-baseline: middle; font-size: 10.2px;" transform="translate(85.6796875,35)" y="0" x="0" id="text-entity-addresses-f674a2cf-3b50-59b9-817e-69ab842a4d68-attr-1-key" class="er entityLabel">PK</text><rect height="22" width="46.78125" y="24" x="102.2421875" class="er attributeBoxOdd"/><text style="dominant-baseline: middle; font-size: 10.2px;" transform="translate(107.2421875,35)" y="0" x="0" id="text-entity-addresses-f674a2cf-3b50-59b9-817e-69ab842a4d68-attr-1-comment" class="er entityLabel"/><rect height="22" width="36.5234375" y="46" x="0" class="er attributeBoxEven"/><text style="dominant-baseline: middle; font-size: 10.2px;" transform="translate(5,57)" y="0" x="0" id="text-entity-addresses-f674a2cf-3b50-59b9-817e-69ab842a4d68-attr-2-type" class="er entityLabel">String</text><rect height="22" width="44.15625" y="46" x="36.5234375" class="er attributeBoxEven"/><text style="dominant-baseline: middle; font-size: 10.2px;" transform="translate(41.5234375,57)" y="0" x="0" id="text-entity-addresses-f674a2cf-3b50-59b9-817e-69ab842a4d68-attr-2-name" class="er entityLabel">quarter</text><rect height="22" width="21.5625" y="46" x="80.6796875" class="er attributeBoxEven"/><text style="dominant-baseline: middle; font-size: 10.2px;" transform="translate(85.6796875,57)" y="0" x="0" id="text-entity-addresses-f674a2cf-3b50-59b9-817e-69ab842a4d68-attr-2-key" class="er entityLabel"/><rect height="22" width="46.78125" y="46" x="102.2421875" class="er attributeBoxEven"/><text style="dominant-baseline: middle; font-size: 10.2px;" transform="translate(107.2421875,57)" y="0" x="0" id="text-entity-addresses-f674a2cf-3b50-59b9-817e-69ab842a4d68-attr-2-comment" class="er entityLabel"/><rect height="22" width="36.5234375" y="68" x="0" class="er attributeBoxOdd"/><text style="dominant-baseline: middle; font-size: 10.2px;" transform="translate(5,79)" y="0" x="0" id="text-entity-addresses-f674a2cf-3b50-59b9-817e-69ab842a4d68-attr-3-type" class="er entityLabel">String</text><rect height="22" width="44.15625" y="68" x="36.5234375" class="er attributeBoxOdd"/><text style="dominant-baseline: middle; font-size: 10.2px;" transform="translate(41.5234375,79)" y="0" x="0" id="text-entity-addresses-f674a2cf-3b50-59b9-817e-69ab842a4d68-attr-3-name" class="er entityLabel">lon</text><rect height="22" width="21.5625" y="68" x="80.6796875" class="er attributeBoxOdd"/><text style="dominant-baseline: middle; font-size: 10.2px;" transform="translate(85.6796875,79)" y="0" x="0" id="text-entity-addresses-f674a2cf-3b50-59b9-817e-69ab842a4d68-attr-3-key" class="er entityLabel"/><rect height="22" width="46.78125" y="68" x="102.2421875" class="er attributeBoxOdd"/><text style="dominant-baseline: middle; font-size: 10.2px;" transform="translate(107.2421875,79)" y="0" x="0" id="text-entity-addresses-f674a2cf-3b50-59b9-817e-69ab842a4d68-attr-3-comment" class="er entityLabel">nullable</text><rect height="22" width="36.5234375" y="90" x="0" class="er attributeBoxEven"/><text style="dominant-baseline: middle; font-size: 10.2px;" transform="translate(5,101)" y="0" x="0" id="text-entity-addresses-f674a2cf-3b50-59b9-817e-69ab842a4d68-attr-4-type" class="er entityLabel">String</text><rect height="22" width="44.15625" y="90" x="36.5234375" class="er attributeBoxEven"/><text style="dominant-baseline: middle; font-size: 10.2px;" transform="translate(41.5234375,101)" y="0" x="0" id="text-entity-addresses-f674a2cf-3b50-59b9-817e-69ab842a4d68-attr-4-name" class="er entityLabel">lat</text><rect height="22" width="21.5625" y="90" x="80.6796875" class="er attributeBoxEven"/><text style="dominant-baseline: middle; font-size: 10.2px;" transform="translate(85.6796875,101)" y="0" x="0" id="text-entity-addresses-f674a2cf-3b50-59b9-817e-69ab842a4d68-attr-4-key" class="er entityLabel"/><rect height="22" width="46.78125" y="90" x="102.2421875" class="er attributeBoxEven"/><text style="dominant-baseline: middle; font-size: 10.2px;" transform="translate(107.2421875,101)" y="0" x="0" id="text-entity-addresses-f674a2cf-3b50-59b9-817e-69ab842a4d68-attr-4-comment" class="er entityLabel">nullable</text><rect height="22" width="36.5234375" y="112" x="0" class="er attributeBoxOdd"/><text style="dominant-baseline: middle; font-size: 10.2px;" transform="translate(5,123)" y="0" x="0" id="text-entity-addresses-f674a2cf-3b50-59b9-817e-69ab842a4d68-attr-5-type" class="er entityLabel">String</text><rect height="22" width="44.15625" y="112" x="36.5234375" class="er attributeBoxOdd"/><text style="dominant-baseline: middle; font-size: 10.2px;" transform="translate(41.5234375,123)" y="0" x="0" id="text-entity-addresses-f674a2cf-3b50-59b9-817e-69ab842a4d68-attr-5-name" class="er entityLabel">bp</text><rect height="22" width="21.5625" y="112" x="80.6796875" class="er attributeBoxOdd"/><text style="dominant-baseline: middle; font-size: 10.2px;" transform="translate(85.6796875,123)" y="0" x="0" id="text-entity-addresses-f674a2cf-3b50-59b9-817e-69ab842a4d68-attr-5-key" class="er entityLabel"/><rect height="22" width="46.78125" y="112" x="102.2421875" class="er attributeBoxOdd"/><text style="dominant-baseline: middle; font-size: 10.2px;" transform="translate(107.2421875,123)" y="0" x="0" id="text-entity-addresses-f674a2cf-3b50-59b9-817e-69ab842a4d68-attr-5-comment" class="er entityLabel">nullable</text><rect height="22" width="36.5234375" y="134" x="0" class="er attributeBoxEven"/><text style="dominant-baseline: middle; font-size: 10.2px;" transform="translate(5,145)" y="0" x="0" id="text-entity-addresses-f674a2cf-3b50-59b9-817e-69ab842a4d68-attr-6-type" class="er entityLabel">String</text><rect height="22" width="44.15625" y="134" x="36.5234375" class="er attributeBoxEven"/><text style="dominant-baseline: middle; font-size: 10.2px;" transform="translate(41.5234375,145)" y="0" x="0" id="text-entity-addresses-f674a2cf-3b50-59b9-817e-69ab842a4d68-attr-6-name" class="er entityLabel">city</text><rect height="22" width="21.5625" y="134" x="80.6796875" class="er attributeBoxEven"/><text style="dominant-baseline: middle; font-size: 10.2px;" transform="translate(85.6796875,145)" y="0" x="0" id="text-entity-addresses-f674a2cf-3b50-59b9-817e-69ab842a4d68-attr-6-key" class="er entityLabel"/><rect height="22" width="46.78125" y="134" x="102.2421875" class="er attributeBoxEven"/><text style="dominant-baseline: middle; font-size: 10.2px;" transform="translate(107.2421875,145)" y="0" x="0" id="text-entity-addresses-f674a2cf-3b50-59b9-817e-69ab842a4d68-attr-6-comment" class="er entityLabel"/><rect height="22" width="36.5234375" y="156" x="0" class="er attributeBoxOdd"/><text style="dominant-baseline: middle; font-size: 10.2px;" transform="translate(5,167)" y="0" x="0" id="text-entity-addresses-f674a2cf-3b50-59b9-817e-69ab842a4d68-attr-7-type" class="er entityLabel">Int</text><rect height="22" width="44.15625" y="156" x="36.5234375" class="er attributeBoxOdd"/><text style="dominant-baseline: middle; font-size: 10.2px;" transform="translate(41.5234375,167)" y="0" x="0" id="text-entity-addresses-f674a2cf-3b50-59b9-817e-69ab842a4d68-attr-7-name" class="er entityLabel">user_id</text><rect height="22" width="21.5625" y="156" x="80.6796875" class="er attributeBoxOdd"/><text style="dominant-baseline: middle; font-size: 10.2px;" transform="translate(85.6796875,167)" y="0" x="0" id="text-entity-addresses-f674a2cf-3b50-59b9-817e-69ab842a4d68-attr-7-key" class="er entityLabel">FK</text><rect height="22" width="46.78125" y="156" x="102.2421875" class="er attributeBoxOdd"/><text style="dominant-baseline: middle; font-size: 10.2px;" transform="translate(107.2421875,167)" y="0" x="0" id="text-entity-addresses-f674a2cf-3b50-59b9-817e-69ab842a4d68-attr-7-comment" class="er entityLabel"/></g><g transform="translate(573.640625,53 )" id="entity-contacts-322165ee-fad1-5595-b988-8534c76b3001"><rect height="112" width="131.40625" y="0" x="0" class="er entityBox"/><text style="dominant-baseline: middle; text-anchor: middle; font-size: 12px;" transform="translate(65.703125,12)" y="0" x="0" id="text-entity-contacts-322165ee-fad1-5595-b988-8534c76b3001" class="er entityLabel">contacts</text><rect height="22" width="66.671875" y="24" x="0" class="er attributeBoxOdd"/><text style="dominant-baseline: middle; font-size: 10.2px;" transform="translate(5,35)" y="0" x="0" id="text-entity-contacts-322165ee-fad1-5595-b988-8534c76b3001-attr-1-type" class="er entityLabel">Int</text><rect height="22" width="43.171875" y="24" x="66.671875" class="er attributeBoxOdd"/><text style="dominant-baseline: middle; font-size: 10.2px;" transform="translate(71.671875,35)" y="0" x="0" id="text-entity-contacts-322165ee-fad1-5595-b988-8534c76b3001-attr-1-name" class="er entityLabel">id</text><rect height="22" width="21.5625" y="24" x="109.84375" class="er attributeBoxOdd"/><text style="dominant-baseline: middle; font-size: 10.2px;" transform="translate(114.84375,35)" y="0" x="0" id="text-entity-contacts-322165ee-fad1-5595-b988-8534c76b3001-attr-1-key" class="er entityLabel">PK</text><rect height="22" width="66.671875" y="46" x="0" class="er attributeBoxEven"/><text style="dominant-baseline: middle; font-size: 10.2px;" transform="translate(5,57)" y="0" x="0" id="text-entity-contacts-322165ee-fad1-5595-b988-8534c76b3001-attr-2-type" class="er entityLabel">ContactType</text><rect height="22" width="43.171875" y="46" x="66.671875" class="er attributeBoxEven"/><text style="dominant-baseline: middle; font-size: 10.2px;" transform="translate(71.671875,57)" y="0" x="0" id="text-entity-contacts-322165ee-fad1-5595-b988-8534c76b3001-attr-2-name" class="er entityLabel">type</text><rect height="22" width="21.5625" y="46" x="109.84375" class="er attributeBoxEven"/><text style="dominant-baseline: middle; font-size: 10.2px;" transform="translate(114.84375,57)" y="0" x="0" id="text-entity-contacts-322165ee-fad1-5595-b988-8534c76b3001-attr-2-key" class="er entityLabel"/><rect height="22" width="66.671875" y="68" x="0" class="er attributeBoxOdd"/><text style="dominant-baseline: middle; font-size: 10.2px;" transform="translate(5,79)" y="0" x="0" id="text-entity-contacts-322165ee-fad1-5595-b988-8534c76b3001-attr-3-type" class="er entityLabel">String</text><rect height="22" width="43.171875" y="68" x="66.671875" class="er attributeBoxOdd"/><text style="dominant-baseline: middle; font-size: 10.2px;" transform="translate(71.671875,79)" y="0" x="0" id="text-entity-contacts-322165ee-fad1-5595-b988-8534c76b3001-attr-3-name" class="er entityLabel">value</text><rect height="22" width="21.5625" y="68" x="109.84375" class="er attributeBoxOdd"/><text style="dominant-baseline: middle; font-size: 10.2px;" transform="translate(114.84375,79)" y="0" x="0" id="text-entity-contacts-322165ee-fad1-5595-b988-8534c76b3001-attr-3-key" class="er entityLabel"/><rect height="22" width="66.671875" y="90" x="0" class="er attributeBoxEven"/><text style="dominant-baseline: middle; font-size: 10.2px;" transform="translate(5,101)" y="0" x="0" id="text-entity-contacts-322165ee-fad1-5595-b988-8534c76b3001-attr-4-type" class="er entityLabel">Int</text><rect height="22" width="43.171875" y="90" x="66.671875" class="er attributeBoxEven"/><text style="dominant-baseline: middle; font-size: 10.2px;" transform="translate(71.671875,101)" y="0" x="0" id="text-entity-contacts-322165ee-fad1-5595-b988-8534c76b3001-attr-4-name" class="er entityLabel">user_id</text><rect height="22" width="21.5625" y="90" x="109.84375" class="er attributeBoxEven"/><text style="dominant-baseline: middle; font-size: 10.2px;" transform="translate(114.84375,101)" y="0" x="0" id="text-entity-contacts-322165ee-fad1-5595-b988-8534c76b3001-attr-4-key" class="er entityLabel">FK</text></g><rect height="14" width="22.625" y="272.3291320800781" x="180.6391143798828" class="er relationshipLabelBox"/><text style="text-anchor: middle; dominant-baseline: middle; font-size: 12px;" y="279.3291320800781" x="191.9516143798828" id="rel1" class="er relationshipLabel">user</text><rect height="14" width="22.625" y="241" x="387.81640625" class="er relationshipLabelBox"/><text style="text-anchor: middle; dominant-baseline: middle; font-size: 12px;" y="248" x="399.12890625" id="rel2" class="er relationshipLabel">user</text><rect height="14" width="22.625" y="262.9799499511719" x="580.0549926757812" class="er relationshipLabelBox"/><text style="text-anchor: middle; dominant-baseline: middle; font-size: 12px;" y="269.9799499511719" x="591.3674926757812" id="rel3" class="er relationshipLabel">user</text></svg>