<svg aria-roledescription="er" role="graphics-document document" viewBox="0 0 211.203125 430" style="max-width: 211.203px; background-color: white;" xmlns:xlink="http://www.w3.org/1999/xlink" xmlns="http://www.w3.org/2000/svg" width="100%" id="my-svg"><style>#my-svg{font-family:"trebuchet ms",verdana,arial,sans-serif;font-size:16px;fill:#333;}#my-svg .error-icon{fill:#552222;}#my-svg .error-text{fill:#552222;stroke:#552222;}#my-svg .edge-thickness-normal{stroke-width:2px;}#my-svg .edge-thickness-thick{stroke-width:3.5px;}#my-svg .edge-pattern-solid{stroke-dasharray:0;}#my-svg .edge-pattern-dashed{stroke-dasharray:3;}#my-svg .edge-pattern-dotted{stroke-dasharray:2;}#my-svg .marker{fill:#333333;stroke:#333333;}#my-svg .marker.cross{stroke:#333333;}#my-svg svg{font-family:"trebuchet ms",verdana,arial,sans-serif;font-size:16px;}#my-svg .entityBox{fill:#ECECFF;stroke:#9370DB;}#my-svg .attributeBoxOdd{fill:#ffffff;stroke:#9370DB;}#my-svg .attributeBoxEven{fill:#f2f2f2;stroke:#9370DB;}#my-svg .relationshipLabelBox{fill:hsl(80, 100%, 96.2745098039%);opacity:0.7;background-color:hsl(80, 100%, 96.2745098039%);}#my-svg .relationshipLabelBox rect{opacity:0.5;}#my-svg .relationshipLine{stroke:#333333;}#my-svg .entityTitleText{text-anchor:middle;font-size:18px;fill:#333;}#my-svg #MD_PARENT_START{fill:#f5f5f5!important;stroke:#333333!important;stroke-width:1;}#my-svg #MD_PARENT_END{fill:#f5f5f5!important;stroke:#333333!important;stroke-width:1;}#my-svg :root{--mermaid-font-family:"trebuchet ms",verdana,arial,sans-serif;}</style><g/><defs><marker orient="auto" markerHeight="240" markerWidth="190" refY="7" refX="0" id="MD_PARENT_START"><path d="M 18,7 L9,13 L1,7 L9,1 Z"/></marker></defs><defs><marker orient="auto" markerHeight="28" markerWidth="20" refY="7" refX="19" id="MD_PARENT_END"><path d="M 18,7 L9,13 L1,7 L9,1 Z"/></marker></defs><defs><marker orient="auto" markerHeight="18" markerWidth="18" refY="9" refX="0" id="ONLY_ONE_START"><path d="M9,0 L9,18 M15,0 L15,18" fill="none" stroke="gray"/></marker></defs><defs><marker orient="auto" markerHeight="18" markerWidth="18" refY="9" refX="18" id="ONLY_ONE_END"><path d="M3,0 L3,18 M9,0 L9,18" fill="none" stroke="gray"/></marker></defs><defs><marker orient="auto" markerHeight="18" markerWidth="30" refY="9" refX="0" id="ZERO_OR_ONE_START"><circle r="6" cy="9" cx="21" fill="white" stroke="gray"/><path d="M9,0 L9,18" fill="none" stroke="gray"/></marker></defs><defs><marker orient="auto" markerHeight="18" markerWidth="30" refY="9" refX="30" id="ZERO_OR_ONE_END"><circle r="6" cy="9" cx="9" fill="white" stroke="gray"/><path d="M21,0 L21,18" fill="none" stroke="gray"/></marker></defs><defs><marker orient="auto" markerHeight="36" markerWidth="45" refY="18" refX="18" id="ONE_OR_MORE_START"><path d="M0,18 Q 18,0 36,18 Q 18,36 0,18 M42,9 L42,27" fill="none" stroke="gray"/></marker></defs><defs><marker orient="auto" markerHeight="36" markerWidth="45" refY="18" refX="27" id="ONE_OR_MORE_END"><path d="M3,9 L3,27 M9,18 Q27,0 45,18 Q27,36 9,18" fill="none" stroke="gray"/></marker></defs><defs><marker orient="auto" markerHeight="36" markerWidth="57" refY="18" refX="18" id="ZERO_OR_MORE_START"><circle r="6" cy="18" cx="48" fill="white" stroke="gray"/><path d="M0,18 Q18,0 36,18 Q18,36 0,18" fill="none" stroke="gray"/></marker></defs><defs><marker orient="auto" markerHeight="36" markerWidth="57" refY="18" refX="39" id="ZERO_OR_MORE_END"><circle r="6" cy="18" cx="9" fill="white" stroke="gray"/><path d="M21,18 Q39,0 57,18 Q39,36 21,18" fill="none" stroke="gray"/></marker></defs><path style="stroke: gray; fill: none;" marker-start="url(#ZERO_OR_MORE_START)" marker-end="url(#ONLY_ONE_END)" d="M105.6015625,198L105.6015625,206.33333333333334C105.6015625,214.66666666666666,105.6015625,231.33333333333334,105.6015625,248C105.6015625,264.6666666666667,105.6015625,281.3333333333333,105.6015625,289.6666666666667L105.6015625,298" class="er relationshipLine"/><g transform="translate(20,298 )" id="entity-operators-be0a7f6f-64c9-5c37-ac62-d6d900ddef48"><rect height="112" width="171.203125" y="0" x="0" class="er entityBox"/><text style="dominant-baseline: middle; text-anchor: middle; font-size: 12px;" transform="translate(85.6015625,12)" y="0" x="0" id="text-entity-operators-be0a7f6f-64c9-5c37-ac62-d6d900ddef48" class="er entityLabel">operators</text><rect height="22" width="36.5234375" y="24" x="0" class="er attributeBoxOdd"/><text style="dominant-baseline: middle; font-size: 10.2px;" transform="translate(5,35)" y="0" x="0" id="text-entity-operators-be0a7f6f-64c9-5c37-ac62-d6d900ddef48-attr-1-type" class="er entityLabel">Int</text><rect height="22" width="66.3359375" y="24" x="36.5234375" class="er attributeBoxOdd"/><text style="dominant-baseline: middle; font-size: 10.2px;" transform="translate(41.5234375,35)" y="0" x="0" id="text-entity-operators-be0a7f6f-64c9-5c37-ac62-d6d900ddef48-attr-1-name" class="er entityLabel">id</text><rect height="22" width="21.5625" y="24" x="102.859375" class="er attributeBoxOdd"/><text style="dominant-baseline: middle; font-size: 10.2px;" transform="translate(107.859375,35)" y="0" x="0" id="text-entity-operators-be0a7f6f-64c9-5c37-ac62-d6d900ddef48-attr-1-key" class="er entityLabel">PK</text><rect height="22" width="46.78125" y="24" x="124.421875" class="er attributeBoxOdd"/><text style="dominant-baseline: middle; font-size: 10.2px;" transform="translate(129.421875,35)" y="0" x="0" id="text-entity-operators-be0a7f6f-64c9-5c37-ac62-d6d900ddef48-attr-1-comment" class="er entityLabel"/><rect height="22" width="36.5234375" y="46" x="0" class="er attributeBoxEven"/><text style="dominant-baseline: middle; font-size: 10.2px;" transform="translate(5,57)" y="0" x="0" id="text-entity-operators-be0a7f6f-64c9-5c37-ac62-d6d900ddef48-attr-2-type" class="er entityLabel">String</text><rect height="22" width="66.3359375" y="46" x="36.5234375" class="er attributeBoxEven"/><text style="dominant-baseline: middle; font-size: 10.2px;" transform="translate(41.5234375,57)" y="0" x="0" id="text-entity-operators-be0a7f6f-64c9-5c37-ac62-d6d900ddef48-attr-2-name" class="er entityLabel">name</text><rect height="22" width="21.5625" y="46" x="102.859375" class="er attributeBoxEven"/><text style="dominant-baseline: middle; font-size: 10.2px;" transform="translate(107.859375,57)" y="0" x="0" id="text-entity-operators-be0a7f6f-64c9-5c37-ac62-d6d900ddef48-attr-2-key" class="er entityLabel"/><rect height="22" width="46.78125" y="46" x="124.421875" class="er attributeBoxEven"/><text style="dominant-baseline: middle; font-size: 10.2px;" transform="translate(129.421875,57)" y="0" x="0" id="text-entity-operators-be0a7f6f-64c9-5c37-ac62-d6d900ddef48-attr-2-comment" class="er entityLabel"/><rect height="22" width="36.5234375" y="68" x="0" class="er attributeBoxOdd"/><text style="dominant-baseline: middle; font-size: 10.2px;" transform="translate(5,79)" y="0" x="0" id="text-entity-operators-be0a7f6f-64c9-5c37-ac62-d6d900ddef48-attr-3-type" class="er entityLabel">String</text><rect height="22" width="66.3359375" y="68" x="36.5234375" class="er attributeBoxOdd"/><text style="dominant-baseline: middle; font-size: 10.2px;" transform="translate(41.5234375,79)" y="0" x="0" id="text-entity-operators-be0a7f6f-64c9-5c37-ac62-d6d900ddef48-attr-3-name" class="er entityLabel">operator_id</text><rect height="22" width="21.5625" y="68" x="102.859375" class="er attributeBoxOdd"/><text style="dominant-baseline: middle; font-size: 10.2px;" transform="translate(107.859375,79)" y="0" x="0" id="text-entity-operators-be0a7f6f-64c9-5c37-ac62-d6d900ddef48-attr-3-key" class="er entityLabel"/><rect height="22" width="46.78125" y="68" x="124.421875" class="er attributeBoxOdd"/><text style="dominant-baseline: middle; font-size: 10.2px;" transform="translate(129.421875,79)" y="0" x="0" id="text-entity-operators-be0a7f6f-64c9-5c37-ac62-d6d900ddef48-attr-3-comment" class="er entityLabel"/><rect height="22" width="36.5234375" y="90" x="0" class="er attributeBoxEven"/><text style="dominant-baseline: middle; font-size: 10.2px;" transform="translate(5,101)" y="0" x="0" id="text-entity-operators-be0a7f6f-64c9-5c37-ac62-d6d900ddef48-attr-4-type" class="er entityLabel">String</text><rect height="22" width="66.3359375" y="90" x="36.5234375" class="er attributeBoxEven"/><text style="dominant-baseline: middle; font-size: 10.2px;" transform="translate(41.5234375,101)" y="0" x="0" id="text-entity-operators-be0a7f6f-64c9-5c37-ac62-d6d900ddef48-attr-4-name" class="er entityLabel">headquarter</text><rect height="22" width="21.5625" y="90" x="102.859375" class="er attributeBoxEven"/><text style="dominant-baseline: middle; font-size: 10.2px;" transform="translate(107.859375,101)" y="0" x="0" id="text-entity-operators-be0a7f6f-64c9-5c37-ac62-d6d900ddef48-attr-4-key" class="er entityLabel"/><rect height="22" width="46.78125" y="90" x="124.421875" class="er attributeBoxEven"/><text style="dominant-baseline: middle; font-size: 10.2px;" transform="translate(129.421875,101)" y="0" x="0" id="text-entity-operators-be0a7f6f-64c9-5c37-ac62-d6d900ddef48-attr-4-comment" class="er entityLabel">nullable</text></g><g transform="translate(20.7578125,20 )" id="entity-stations-0470fa4a-2f00-5650-a0c9-0b242e25b64d"><rect height="178" width="169.6875" y="0" x="0" class="er entityBox"/><text style="dominant-baseline: middle; text-anchor: middle; font-size: 12px;" transform="translate(84.84375,12)" y="0" x="0" id="text-entity-stations-0470fa4a-2f00-5650-a0c9-0b242e25b64d" class="er entityLabel">stations</text><rect height="22" width="36.5234375" y="24" x="0" class="er attributeBoxOdd"/><text style="dominant-baseline: middle; font-size: 10.2px;" transform="translate(5,35)" y="0" x="0" id="text-entity-stations-0470fa4a-2f00-5650-a0c9-0b242e25b64d-attr-1-type" class="er entityLabel">Int</text><rect height="22" width="64.8203125" y="24" x="36.5234375" class="er attributeBoxOdd"/><text style="dominant-baseline: middle; font-size: 10.2px;" transform="translate(41.5234375,35)" y="0" x="0" id="text-entity-stations-0470fa4a-2f00-5650-a0c9-0b242e25b64d-attr-1-name" class="er entityLabel">id</text><rect height="22" width="21.5625" y="24" x="101.34375" class="er attributeBoxOdd"/><text style="dominant-baseline: middle; font-size: 10.2px;" transform="translate(106.34375,35)" y="0" x="0" id="text-entity-stations-0470fa4a-2f00-5650-a0c9-0b242e25b64d-attr-1-key" class="er entityLabel">PK</text><rect height="22" width="46.78125" y="24" x="122.90625" class="er attributeBoxOdd"/><text style="dominant-baseline: middle; font-size: 10.2px;" transform="translate(127.90625,35)" y="0" x="0" id="text-entity-stations-0470fa4a-2f00-5650-a0c9-0b242e25b64d-attr-1-comment" class="er entityLabel"/><rect height="22" width="36.5234375" y="46" x="0" class="er attributeBoxEven"/><text style="dominant-baseline: middle; font-size: 10.2px;" transform="translate(5,57)" y="0" x="0" id="text-entity-stations-0470fa4a-2f00-5650-a0c9-0b242e25b64d-attr-2-type" class="er entityLabel">String</text><rect height="22" width="64.8203125" y="46" x="36.5234375" class="er attributeBoxEven"/><text style="dominant-baseline: middle; font-size: 10.2px;" transform="translate(41.5234375,57)" y="0" x="0" id="text-entity-stations-0470fa4a-2f00-5650-a0c9-0b242e25b64d-attr-2-name" class="er entityLabel">quarter</text><rect height="22" width="21.5625" y="46" x="101.34375" class="er attributeBoxEven"/><text style="dominant-baseline: middle; font-size: 10.2px;" transform="translate(106.34375,57)" y="0" x="0" id="text-entity-stations-0470fa4a-2f00-5650-a0c9-0b242e25b64d-attr-2-key" class="er entityLabel"/><rect height="22" width="46.78125" y="46" x="122.90625" class="er attributeBoxEven"/><text style="dominant-baseline: middle; font-size: 10.2px;" transform="translate(127.90625,57)" y="0" x="0" id="text-entity-stations-0470fa4a-2f00-5650-a0c9-0b242e25b64d-attr-2-comment" class="er entityLabel"/><rect height="22" width="36.5234375" y="68" x="0" class="er attributeBoxOdd"/><text style="dominant-baseline: middle; font-size: 10.2px;" transform="translate(5,79)" y="0" x="0" id="text-entity-stations-0470fa4a-2f00-5650-a0c9-0b242e25b64d-attr-3-type" class="er entityLabel">String</text><rect height="22" width="64.8203125" y="68" x="36.5234375" class="er attributeBoxOdd"/><text style="dominant-baseline: middle; font-size: 10.2px;" transform="translate(41.5234375,79)" y="0" x="0" id="text-entity-stations-0470fa4a-2f00-5650-a0c9-0b242e25b64d-attr-3-name" class="er entityLabel">lon</text><rect height="22" width="21.5625" y="68" x="101.34375" class="er attributeBoxOdd"/><text style="dominant-baseline: middle; font-size: 10.2px;" transform="translate(106.34375,79)" y="0" x="0" id="text-entity-stations-0470fa4a-2f00-5650-a0c9-0b242e25b64d-attr-3-key" class="er entityLabel"/><rect height="22" width="46.78125" y="68" x="122.90625" class="er attributeBoxOdd"/><text style="dominant-baseline: middle; font-size: 10.2px;" transform="translate(127.90625,79)" y="0" x="0" id="text-entity-stations-0470fa4a-2f00-5650-a0c9-0b242e25b64d-attr-3-comment" class="er entityLabel">nullable</text><rect height="22" width="36.5234375" y="90" x="0" class="er attributeBoxEven"/><text style="dominant-baseline: middle; font-size: 10.2px;" transform="translate(5,101)" y="0" x="0" id="text-entity-stations-0470fa4a-2f00-5650-a0c9-0b242e25b64d-attr-4-type" class="er entityLabel">String</text><rect height="22" width="64.8203125" y="90" x="36.5234375" class="er attributeBoxEven"/><text style="dominant-baseline: middle; font-size: 10.2px;" transform="translate(41.5234375,101)" y="0" x="0" id="text-entity-stations-0470fa4a-2f00-5650-a0c9-0b242e25b64d-attr-4-name" class="er entityLabel">lat</text><rect height="22" width="21.5625" y="90" x="101.34375" class="er attributeBoxEven"/><text style="dominant-baseline: middle; font-size: 10.2px;" transform="translate(106.34375,101)" y="0" x="0" id="text-entity-stations-0470fa4a-2f00-5650-a0c9-0b242e25b64d-attr-4-key" class="er entityLabel"/><rect height="22" width="46.78125" y="90" x="122.90625" class="er attributeBoxEven"/><text style="dominant-baseline: middle; font-size: 10.2px;" transform="translate(127.90625,101)" y="0" x="0" id="text-entity-stations-0470fa4a-2f00-5650-a0c9-0b242e25b64d-attr-4-comment" class="er entityLabel">nullable</text><rect height="22" width="36.5234375" y="112" x="0" class="er attributeBoxOdd"/><text style="dominant-baseline: middle; font-size: 10.2px;" transform="translate(5,123)" y="0" x="0" id="text-entity-stations-0470fa4a-2f00-5650-a0c9-0b242e25b64d-attr-5-type" class="er entityLabel">String</text><rect height="22" width="64.8203125" y="112" x="36.5234375" class="er attributeBoxOdd"/><text style="dominant-baseline: middle; font-size: 10.2px;" transform="translate(41.5234375,123)" y="0" x="0" id="text-entity-stations-0470fa4a-2f00-5650-a0c9-0b242e25b64d-attr-5-name" class="er entityLabel">postal_code</text><rect height="22" width="21.5625" y="112" x="101.34375" class="er attributeBoxOdd"/><text style="dominant-baseline: middle; font-size: 10.2px;" transform="translate(106.34375,123)" y="0" x="0" id="text-entity-stations-0470fa4a-2f00-5650-a0c9-0b242e25b64d-attr-5-key" class="er entityLabel"/><rect height="22" width="46.78125" y="112" x="122.90625" class="er attributeBoxOdd"/><text style="dominant-baseline: middle; font-size: 10.2px;" transform="translate(127.90625,123)" y="0" x="0" id="text-entity-stations-0470fa4a-2f00-5650-a0c9-0b242e25b64d-attr-5-comment" class="er entityLabel">nullable</text><rect height="22" width="36.5234375" y="134" x="0" class="er attributeBoxEven"/><text style="dominant-baseline: middle; font-size: 10.2px;" transform="translate(5,145)" y="0" x="0" id="text-entity-stations-0470fa4a-2f00-5650-a0c9-0b242e25b64d-attr-6-type" class="er entityLabel">Int</text><rect height="22" width="64.8203125" y="134" x="36.5234375" class="er attributeBoxEven"/><text style="dominant-baseline: middle; font-size: 10.2px;" transform="translate(41.5234375,145)" y="0" x="0" id="text-entity-stations-0470fa4a-2f00-5650-a0c9-0b242e25b64d-attr-6-name" class="er entityLabel">location_id</text><rect height="22" width="21.5625" y="134" x="101.34375" class="er attributeBoxEven"/><text style="dominant-baseline: middle; font-size: 10.2px;" transform="translate(106.34375,145)" y="0" x="0" id="text-entity-stations-0470fa4a-2f00-5650-a0c9-0b242e25b64d-attr-6-key" class="er entityLabel">FK</text><rect height="22" width="46.78125" y="134" x="122.90625" class="er attributeBoxEven"/><text style="dominant-baseline: middle; font-size: 10.2px;" transform="translate(127.90625,145)" y="0" x="0" id="text-entity-stations-0470fa4a-2f00-5650-a0c9-0b242e25b64d-attr-6-comment" class="er entityLabel"/><rect height="22" width="36.5234375" y="156" x="0" class="er attributeBoxOdd"/><text style="dominant-baseline: middle; font-size: 10.2px;" transform="translate(5,167)" y="0" x="0" id="text-entity-stations-0470fa4a-2f00-5650-a0c9-0b242e25b64d-attr-7-type" class="er entityLabel">Int</text><rect height="22" width="64.8203125" y="156" x="36.5234375" class="er attributeBoxOdd"/><text style="dominant-baseline: middle; font-size: 10.2px;" transform="translate(41.5234375,167)" y="0" x="0" id="text-entity-stations-0470fa4a-2f00-5650-a0c9-0b242e25b64d-attr-7-name" class="er entityLabel">operator_id</text><rect height="22" width="21.5625" y="156" x="101.34375" class="er attributeBoxOdd"/><text style="dominant-baseline: middle; font-size: 10.2px;" transform="translate(106.34375,167)" y="0" x="0" id="text-entity-stations-0470fa4a-2f00-5650-a0c9-0b242e25b64d-attr-7-key" class="er entityLabel">FK</text><rect height="22" width="46.78125" y="156" x="122.90625" class="er attributeBoxOdd"/><text style="dominant-baseline: middle; font-size: 10.2px;" transform="translate(127.90625,167)" y="0" x="0" id="text-entity-stations-0470fa4a-2f00-5650-a0c9-0b242e25b64d-attr-7-comment" class="er entityLabel"/></g><rect height="14" width="51.359375" y="241" x="79.921875" class="er relationshipLabelBox"/><text style="text-anchor: middle; dominant-baseline: middle; font-size: 12px;" y="248" x="105.6015625" id="rel1" class="er relationshipLabel">operators</text></svg>