<svg aria-roledescription="er" role="graphics-document document" viewBox="0 0 633.2578125 708" style="max-width: 633.258px; background-color: white;" xmlns:xlink="http://www.w3.org/1999/xlink" xmlns="http://www.w3.org/2000/svg" width="100%" id="my-svg"><style>#my-svg{font-family:"trebuchet ms",verdana,arial,sans-serif;font-size:16px;fill:#333;}#my-svg .error-icon{fill:#552222;}#my-svg .error-text{fill:#552222;stroke:#552222;}#my-svg .edge-thickness-normal{stroke-width:2px;}#my-svg .edge-thickness-thick{stroke-width:3.5px;}#my-svg .edge-pattern-solid{stroke-dasharray:0;}#my-svg .edge-pattern-dashed{stroke-dasharray:3;}#my-svg .edge-pattern-dotted{stroke-dasharray:2;}#my-svg .marker{fill:#333333;stroke:#333333;}#my-svg .marker.cross{stroke:#333333;}#my-svg svg{font-family:"trebuchet ms",verdana,arial,sans-serif;font-size:16px;}#my-svg .entityBox{fill:#ECECFF;stroke:#9370DB;}#my-svg .attributeBoxOdd{fill:#ffffff;stroke:#9370DB;}#my-svg .attributeBoxEven{fill:#f2f2f2;stroke:#9370DB;}#my-svg .relationshipLabelBox{fill:hsl(80, 100%, 96.2745098039%);opacity:0.7;background-color:hsl(80, 100%, 96.2745098039%);}#my-svg .relationshipLabelBox rect{opacity:0.5;}#my-svg .relationshipLine{stroke:#333333;}#my-svg .entityTitleText{text-anchor:middle;font-size:18px;fill:#333;}#my-svg #MD_PARENT_START{fill:#f5f5f5!important;stroke:#333333!important;stroke-width:1;}#my-svg #MD_PARENT_END{fill:#f5f5f5!important;stroke:#333333!important;stroke-width:1;}#my-svg :root{--mermaid-font-family:"trebuchet ms",verdana,arial,sans-serif;}</style><g/><defs><marker orient="auto" markerHeight="240" markerWidth="190" refY="7" refX="0" id="MD_PARENT_START"><path d="M 18,7 L9,13 L1,7 L9,1 Z"/></marker></defs><defs><marker orient="auto" markerHeight="28" markerWidth="20" refY="7" refX="19" id="MD_PARENT_END"><path d="M 18,7 L9,13 L1,7 L9,1 Z"/></marker></defs><defs><marker orient="auto" markerHeight="18" markerWidth="18" refY="9" refX="0" id="ONLY_ONE_START"><path d="M9,0 L9,18 M15,0 L15,18" fill="none" stroke="gray"/></marker></defs><defs><marker orient="auto" markerHeight="18" markerWidth="18" refY="9" refX="18" id="ONLY_ONE_END"><path d="M3,0 L3,18 M9,0 L9,18" fill="none" stroke="gray"/></marker></defs><defs><marker orient="auto" markerHeight="18" markerWidth="30" refY="9" refX="0" id="ZERO_OR_ONE_START"><circle r="6" cy="9" cx="21" fill="white" stroke="gray"/><path d="M9,0 L9,18" fill="none" stroke="gray"/></marker></defs><defs><marker orient="auto" markerHeight="18" markerWidth="30" refY="9" refX="30" id="ZERO_OR_ONE_END"><circle r="6" cy="9" cx="9" fill="white" stroke="gray"/><path d="M21,0 L21,18" fill="none" stroke="gray"/></marker></defs><defs><marker orient="auto" markerHeight="36" markerWidth="45" refY="18" refX="18" id="ONE_OR_MORE_START"><path d="M0,18 Q 18,0 36,18 Q 18,36 0,18 M42,9 L42,27" fill="none" stroke="gray"/></marker></defs><defs><marker orient="auto" markerHeight="36" markerWidth="45" refY="18" refX="27" id="ONE_OR_MORE_END"><path d="M3,9 L3,27 M9,18 Q27,0 45,18 Q27,36 9,18" fill="none" stroke="gray"/></marker></defs><defs><marker orient="auto" markerHeight="36" markerWidth="57" refY="18" refX="18" id="ZERO_OR_MORE_START"><circle r="6" cy="18" cx="48" fill="white" stroke="gray"/><path d="M0,18 Q18,0 36,18 Q18,36 0,18" fill="none" stroke="gray"/></marker></defs><defs><marker orient="auto" markerHeight="36" markerWidth="57" refY="18" refX="39" id="ZERO_OR_MORE_END"><circle r="6" cy="18" cx="9" fill="white" stroke="gray"/><path d="M21,18 Q39,0 57,18 Q39,36 21,18" fill="none" stroke="gray"/></marker></defs><path style="stroke: gray; fill: none;" marker-start="url(#ZERO_OR_MORE_START)" marker-end="url(#ONLY_ONE_END)" d="M322.685546875,132L322.685546875,140.33333333333334C322.685546875,148.66666666666666,322.685546875,165.33333333333334,322.685546875,182C322.685546875,198.66666666666666,322.685546875,215.33333333333334,322.685546875,223.66666666666666L322.685546875,232" class="er relationshipLine"/><path style="stroke: gray; fill: none;" marker-start="url(#ZERO_OR_MORE_START)" marker-end="url(#ONLY_ONE_END)" d="M247.564453125,349.71226207782547L231.19889322916666,360.7602183981879C214.83333333333334,371.80817471855033,182.10221354166666,393.90408735927514,165.73665364583334,413.2853770129709C149.37109375,432.6666666666667,149.37109375,449.3333333333333,149.37109375,457.6666666666667L149.37109375,466" class="er relationshipLine"/><path style="stroke: gray; fill: none;" marker-start="url(#ZERO_OR_MORE_START)" marker-end="url(#ONLY_ONE_END)" d="M397.806640625,349.71226207782547L414.1722005208333,360.7602183981879C430.5377604166667,371.80817471855033,463.2688802083333,393.90408735927514,479.6344401041667,420.6187103463042C496,447.3333333333333,496,478.6666666666667,496,494.3333333333333L496,510" class="er relationshipLine"/><g transform="translate(20,466 )" id="entity-compositions-ae4b67ea-54a2-5a1e-821a-9d86ddf29189"><rect height="222" width="258.7421875" y="0" x="0" class="er entityBox"/><text style="dominant-baseline: middle; text-anchor: middle; font-size: 12px;" transform="translate(129.37109375,12)" y="0" x="0" id="text-entity-compositions-ae4b67ea-54a2-5a1e-821a-9d86ddf29189" class="er entityLabel">compositions</text><rect height="22" width="109.4609375" y="24" x="0" class="er attributeBoxOdd"/><text style="dominant-baseline: middle; font-size: 10.2px;" transform="translate(5,35)" y="0" x="0" id="text-entity-compositions-ae4b67ea-54a2-5a1e-821a-9d86ddf29189-attr-1-type" class="er entityLabel">Int</text><rect height="22" width="80.9375" y="24" x="109.4609375" class="er attributeBoxOdd"/><text style="dominant-baseline: middle; font-size: 10.2px;" transform="translate(114.4609375,35)" y="0" x="0" id="text-entity-compositions-ae4b67ea-54a2-5a1e-821a-9d86ddf29189-attr-1-name" class="er entityLabel">id</text><rect height="22" width="21.5625" y="24" x="190.3984375" class="er attributeBoxOdd"/><text style="dominant-baseline: middle; font-size: 10.2px;" transform="translate(195.3984375,35)" y="0" x="0" id="text-entity-compositions-ae4b67ea-54a2-5a1e-821a-9d86ddf29189-attr-1-key" class="er entityLabel">PK</text><rect height="22" width="46.78125" y="24" x="211.9609375" class="er attributeBoxOdd"/><text style="dominant-baseline: middle; font-size: 10.2px;" transform="translate(216.9609375,35)" y="0" x="0" id="text-entity-compositions-ae4b67ea-54a2-5a1e-821a-9d86ddf29189-attr-1-comment" class="er entityLabel"/><rect height="22" width="109.4609375" y="46" x="0" class="er attributeBoxEven"/><text style="dominant-baseline: middle; font-size: 10.2px;" transform="translate(5,57)" y="0" x="0" id="text-entity-compositions-ae4b67ea-54a2-5a1e-821a-9d86ddf29189-attr-2-type" class="er entityLabel">CompositionType</text><rect height="22" width="80.9375" y="46" x="109.4609375" class="er attributeBoxEven"/><text style="dominant-baseline: middle; font-size: 10.2px;" transform="translate(114.4609375,57)" y="0" x="0" id="text-entity-compositions-ae4b67ea-54a2-5a1e-821a-9d86ddf29189-attr-2-name" class="er entityLabel">type</text><rect height="22" width="21.5625" y="46" x="190.3984375" class="er attributeBoxEven"/><text style="dominant-baseline: middle; font-size: 10.2px;" transform="translate(195.3984375,57)" y="0" x="0" id="text-entity-compositions-ae4b67ea-54a2-5a1e-821a-9d86ddf29189-attr-2-key" class="er entityLabel"/><rect height="22" width="46.78125" y="46" x="211.9609375" class="er attributeBoxEven"/><text style="dominant-baseline: middle; font-size: 10.2px;" transform="translate(216.9609375,57)" y="0" x="0" id="text-entity-compositions-ae4b67ea-54a2-5a1e-821a-9d86ddf29189-attr-2-comment" class="er entityLabel"/><rect height="22" width="109.4609375" y="68" x="0" class="er attributeBoxOdd"/><text style="dominant-baseline: middle; font-size: 10.2px;" transform="translate(5,79)" y="0" x="0" id="text-entity-compositions-ae4b67ea-54a2-5a1e-821a-9d86ddf29189-attr-3-type" class="er entityLabel">String</text><rect height="22" width="80.9375" y="68" x="109.4609375" class="er attributeBoxOdd"/><text style="dominant-baseline: middle; font-size: 10.2px;" transform="translate(114.4609375,79)" y="0" x="0" id="text-entity-compositions-ae4b67ea-54a2-5a1e-821a-9d86ddf29189-attr-3-name" class="er entityLabel">code</text><rect height="22" width="21.5625" y="68" x="190.3984375" class="er attributeBoxOdd"/><text style="dominant-baseline: middle; font-size: 10.2px;" transform="translate(195.3984375,79)" y="0" x="0" id="text-entity-compositions-ae4b67ea-54a2-5a1e-821a-9d86ddf29189-attr-3-key" class="er entityLabel"/><rect height="22" width="46.78125" y="68" x="211.9609375" class="er attributeBoxOdd"/><text style="dominant-baseline: middle; font-size: 10.2px;" transform="translate(216.9609375,79)" y="0" x="0" id="text-entity-compositions-ae4b67ea-54a2-5a1e-821a-9d86ddf29189-attr-3-comment" class="er entityLabel"/><rect height="22" width="109.4609375" y="90" x="0" class="er attributeBoxEven"/><text style="dominant-baseline: middle; font-size: 10.2px;" transform="translate(5,101)" y="0" x="0" id="text-entity-compositions-ae4b67ea-54a2-5a1e-821a-9d86ddf29189-attr-4-type" class="er entityLabel">Int</text><rect height="22" width="80.9375" y="90" x="109.4609375" class="er attributeBoxEven"/><text style="dominant-baseline: middle; font-size: 10.2px;" transform="translate(114.4609375,101)" y="0" x="0" id="text-entity-compositions-ae4b67ea-54a2-5a1e-821a-9d86ddf29189-attr-4-name" class="er entityLabel">operator_id</text><rect height="22" width="21.5625" y="90" x="190.3984375" class="er attributeBoxEven"/><text style="dominant-baseline: middle; font-size: 10.2px;" transform="translate(195.3984375,101)" y="0" x="0" id="text-entity-compositions-ae4b67ea-54a2-5a1e-821a-9d86ddf29189-attr-4-key" class="er entityLabel">FK</text><rect height="22" width="46.78125" y="90" x="211.9609375" class="er attributeBoxEven"/><text style="dominant-baseline: middle; font-size: 10.2px;" transform="translate(216.9609375,101)" y="0" x="0" id="text-entity-compositions-ae4b67ea-54a2-5a1e-821a-9d86ddf29189-attr-4-comment" class="er entityLabel"/><rect height="22" width="109.4609375" y="112" x="0" class="er attributeBoxOdd"/><text style="dominant-baseline: middle; font-size: 10.2px;" transform="translate(5,123)" y="0" x="0" id="text-entity-compositions-ae4b67ea-54a2-5a1e-821a-9d86ddf29189-attr-5-type" class="er entityLabel">CompositionMetaType</text><rect height="22" width="80.9375" y="112" x="109.4609375" class="er attributeBoxOdd"/><text style="dominant-baseline: middle; font-size: 10.2px;" transform="translate(114.4609375,123)" y="0" x="0" id="text-entity-compositions-ae4b67ea-54a2-5a1e-821a-9d86ddf29189-attr-5-name" class="er entityLabel">metas</text><rect height="22" width="21.5625" y="112" x="190.3984375" class="er attributeBoxOdd"/><text style="dominant-baseline: middle; font-size: 10.2px;" transform="translate(195.3984375,123)" y="0" x="0" id="text-entity-compositions-ae4b67ea-54a2-5a1e-821a-9d86ddf29189-attr-5-key" class="er entityLabel"/><rect height="22" width="46.78125" y="112" x="211.9609375" class="er attributeBoxOdd"/><text style="dominant-baseline: middle; font-size: 10.2px;" transform="translate(216.9609375,123)" y="0" x="0" id="text-entity-compositions-ae4b67ea-54a2-5a1e-821a-9d86ddf29189-attr-5-comment" class="er entityLabel"/><rect height="22" width="109.4609375" y="134" x="0" class="er attributeBoxEven"/><text style="dominant-baseline: middle; font-size: 10.2px;" transform="translate(5,145)" y="0" x="0" id="text-entity-compositions-ae4b67ea-54a2-5a1e-821a-9d86ddf29189-attr-6-type" class="er entityLabel">String</text><rect height="22" width="80.9375" y="134" x="109.4609375" class="er attributeBoxEven"/><text style="dominant-baseline: middle; font-size: 10.2px;" transform="translate(114.4609375,145)" y="0" x="0" id="text-entity-compositions-ae4b67ea-54a2-5a1e-821a-9d86ddf29189-attr-6-name" class="er entityLabel">price</text><rect height="22" width="21.5625" y="134" x="190.3984375" class="er attributeBoxEven"/><text style="dominant-baseline: middle; font-size: 10.2px;" transform="translate(195.3984375,145)" y="0" x="0" id="text-entity-compositions-ae4b67ea-54a2-5a1e-821a-9d86ddf29189-attr-6-key" class="er entityLabel"/><rect height="22" width="46.78125" y="134" x="211.9609375" class="er attributeBoxEven"/><text style="dominant-baseline: middle; font-size: 10.2px;" transform="translate(216.9609375,145)" y="0" x="0" id="text-entity-compositions-ae4b67ea-54a2-5a1e-821a-9d86ddf29189-attr-6-comment" class="er entityLabel">nullable</text><rect height="22" width="109.4609375" y="156" x="0" class="er attributeBoxOdd"/><text style="dominant-baseline: middle; font-size: 10.2px;" transform="translate(5,167)" y="0" x="0" id="text-entity-compositions-ae4b67ea-54a2-5a1e-821a-9d86ddf29189-attr-7-type" class="er entityLabel">DateTime</text><rect height="22" width="80.9375" y="156" x="109.4609375" class="er attributeBoxOdd"/><text style="dominant-baseline: middle; font-size: 10.2px;" transform="translate(114.4609375,167)" y="0" x="0" id="text-entity-compositions-ae4b67ea-54a2-5a1e-821a-9d86ddf29189-attr-7-name" class="er entityLabel">duration</text><rect height="22" width="21.5625" y="156" x="190.3984375" class="er attributeBoxOdd"/><text style="dominant-baseline: middle; font-size: 10.2px;" transform="translate(195.3984375,167)" y="0" x="0" id="text-entity-compositions-ae4b67ea-54a2-5a1e-821a-9d86ddf29189-attr-7-key" class="er entityLabel"/><rect height="22" width="46.78125" y="156" x="211.9609375" class="er attributeBoxOdd"/><text style="dominant-baseline: middle; font-size: 10.2px;" transform="translate(216.9609375,167)" y="0" x="0" id="text-entity-compositions-ae4b67ea-54a2-5a1e-821a-9d86ddf29189-attr-7-comment" class="er entityLabel">nullable</text><rect height="22" width="109.4609375" y="178" x="0" class="er attributeBoxEven"/><text style="dominant-baseline: middle; font-size: 10.2px;" transform="translate(5,189)" y="0" x="0" id="text-entity-compositions-ae4b67ea-54a2-5a1e-821a-9d86ddf29189-attr-8-type" class="er entityLabel">DateTime</text><rect height="22" width="80.9375" y="178" x="109.4609375" class="er attributeBoxEven"/><text style="dominant-baseline: middle; font-size: 10.2px;" transform="translate(114.4609375,189)" y="0" x="0" id="text-entity-compositions-ae4b67ea-54a2-5a1e-821a-9d86ddf29189-attr-8-name" class="er entityLabel">operation_start</text><rect height="22" width="21.5625" y="178" x="190.3984375" class="er attributeBoxEven"/><text style="dominant-baseline: middle; font-size: 10.2px;" transform="translate(195.3984375,189)" y="0" x="0" id="text-entity-compositions-ae4b67ea-54a2-5a1e-821a-9d86ddf29189-attr-8-key" class="er entityLabel"/><rect height="22" width="46.78125" y="178" x="211.9609375" class="er attributeBoxEven"/><text style="dominant-baseline: middle; font-size: 10.2px;" transform="translate(216.9609375,189)" y="0" x="0" id="text-entity-compositions-ae4b67ea-54a2-5a1e-821a-9d86ddf29189-attr-8-comment" class="er entityLabel"/><rect height="22" width="109.4609375" y="200" x="0" class="er attributeBoxOdd"/><text style="dominant-baseline: middle; font-size: 10.2px;" transform="translate(5,211)" y="0" x="0" id="text-entity-compositions-ae4b67ea-54a2-5a1e-821a-9d86ddf29189-attr-9-type" class="er entityLabel">DateTime</text><rect height="22" width="80.9375" y="200" x="109.4609375" class="er attributeBoxOdd"/><text style="dominant-baseline: middle; font-size: 10.2px;" transform="translate(114.4609375,211)" y="0" x="0" id="text-entity-compositions-ae4b67ea-54a2-5a1e-821a-9d86ddf29189-attr-9-name" class="er entityLabel">operation_end</text><rect height="22" width="21.5625" y="200" x="190.3984375" class="er attributeBoxOdd"/><text style="dominant-baseline: middle; font-size: 10.2px;" transform="translate(195.3984375,211)" y="0" x="0" id="text-entity-compositions-ae4b67ea-54a2-5a1e-821a-9d86ddf29189-attr-9-key" class="er entityLabel"/><rect height="22" width="46.78125" y="200" x="211.9609375" class="er attributeBoxOdd"/><text style="dominant-baseline: middle; font-size: 10.2px;" transform="translate(216.9609375,211)" y="0" x="0" id="text-entity-compositions-ae4b67ea-54a2-5a1e-821a-9d86ddf29189-attr-9-comment" class="er entityLabel"/></g><g transform="translate(214.689453125,20 )" id="entity-schedules-45caaec9-3650-577d-8d22-03cb552ce944"><rect height="112" width="215.9921875" y="0" x="0" class="er entityBox"/><text style="dominant-baseline: middle; text-anchor: middle; font-size: 12px;" transform="translate(107.99609375,12)" y="0" x="0" id="text-entity-schedules-45caaec9-3650-577d-8d22-03cb552ce944" class="er entityLabel">schedules</text><rect height="22" width="65.9140625" y="24" x="0" class="er attributeBoxOdd"/><text style="dominant-baseline: middle; font-size: 10.2px;" transform="translate(5,35)" y="0" x="0" id="text-entity-schedules-45caaec9-3650-577d-8d22-03cb552ce944-attr-1-type" class="er entityLabel">Int</text><rect height="22" width="81.734375" y="24" x="65.9140625" class="er attributeBoxOdd"/><text style="dominant-baseline: middle; font-size: 10.2px;" transform="translate(70.9140625,35)" y="0" x="0" id="text-entity-schedules-45caaec9-3650-577d-8d22-03cb552ce944-attr-1-name" class="er entityLabel">id</text><rect height="22" width="21.5625" y="24" x="147.6484375" class="er attributeBoxOdd"/><text style="dominant-baseline: middle; font-size: 10.2px;" transform="translate(152.6484375,35)" y="0" x="0" id="text-entity-schedules-45caaec9-3650-577d-8d22-03cb552ce944-attr-1-key" class="er entityLabel">PK</text><rect height="22" width="46.78125" y="24" x="169.2109375" class="er attributeBoxOdd"/><text style="dominant-baseline: middle; font-size: 10.2px;" transform="translate(174.2109375,35)" y="0" x="0" id="text-entity-schedules-45caaec9-3650-577d-8d22-03cb552ce944-attr-1-comment" class="er entityLabel"/><rect height="22" width="65.9140625" y="46" x="0" class="er attributeBoxEven"/><text style="dominant-baseline: middle; font-size: 10.2px;" transform="translate(5,57)" y="0" x="0" id="text-entity-schedules-45caaec9-3650-577d-8d22-03cb552ce944-attr-2-type" class="er entityLabel">DaysOfWeek</text><rect height="22" width="81.734375" y="46" x="65.9140625" class="er attributeBoxEven"/><text style="dominant-baseline: middle; font-size: 10.2px;" transform="translate(70.9140625,57)" y="0" x="0" id="text-entity-schedules-45caaec9-3650-577d-8d22-03cb552ce944-attr-2-name" class="er entityLabel">departure_date</text><rect height="22" width="21.5625" y="46" x="147.6484375" class="er attributeBoxEven"/><text style="dominant-baseline: middle; font-size: 10.2px;" transform="translate(152.6484375,57)" y="0" x="0" id="text-entity-schedules-45caaec9-3650-577d-8d22-03cb552ce944-attr-2-key" class="er entityLabel"/><rect height="22" width="46.78125" y="46" x="169.2109375" class="er attributeBoxEven"/><text style="dominant-baseline: middle; font-size: 10.2px;" transform="translate(174.2109375,57)" y="0" x="0" id="text-entity-schedules-45caaec9-3650-577d-8d22-03cb552ce944-attr-2-comment" class="er entityLabel">nullable</text><rect height="22" width="65.9140625" y="68" x="0" class="er attributeBoxOdd"/><text style="dominant-baseline: middle; font-size: 10.2px;" transform="translate(5,79)" y="0" x="0" id="text-entity-schedules-45caaec9-3650-577d-8d22-03cb552ce944-attr-3-type" class="er entityLabel">DateTime</text><rect height="22" width="81.734375" y="68" x="65.9140625" class="er attributeBoxOdd"/><text style="dominant-baseline: middle; font-size: 10.2px;" transform="translate(70.9140625,79)" y="0" x="0" id="text-entity-schedules-45caaec9-3650-577d-8d22-03cb552ce944-attr-3-name" class="er entityLabel">departure_time</text><rect height="22" width="21.5625" y="68" x="147.6484375" class="er attributeBoxOdd"/><text style="dominant-baseline: middle; font-size: 10.2px;" transform="translate(152.6484375,79)" y="0" x="0" id="text-entity-schedules-45caaec9-3650-577d-8d22-03cb552ce944-attr-3-key" class="er entityLabel"/><rect height="22" width="46.78125" y="68" x="169.2109375" class="er attributeBoxOdd"/><text style="dominant-baseline: middle; font-size: 10.2px;" transform="translate(174.2109375,79)" y="0" x="0" id="text-entity-schedules-45caaec9-3650-577d-8d22-03cb552ce944-attr-3-comment" class="er entityLabel"/><rect height="22" width="65.9140625" y="90" x="0" class="er attributeBoxEven"/><text style="dominant-baseline: middle; font-size: 10.2px;" transform="translate(5,101)" y="0" x="0" id="text-entity-schedules-45caaec9-3650-577d-8d22-03cb552ce944-attr-4-type" class="er entityLabel">Int</text><rect height="22" width="81.734375" y="90" x="65.9140625" class="er attributeBoxEven"/><text style="dominant-baseline: middle; font-size: 10.2px;" transform="translate(70.9140625,101)" y="0" x="0" id="text-entity-schedules-45caaec9-3650-577d-8d22-03cb552ce944-attr-4-name" class="er entityLabel">trip_id</text><rect height="22" width="21.5625" y="90" x="147.6484375" class="er attributeBoxEven"/><text style="dominant-baseline: middle; font-size: 10.2px;" transform="translate(152.6484375,101)" y="0" x="0" id="text-entity-schedules-45caaec9-3650-577d-8d22-03cb552ce944-attr-4-key" class="er entityLabel">FK</text><rect height="22" width="46.78125" y="90" x="169.2109375" class="er attributeBoxEven"/><text style="dominant-baseline: middle; font-size: 10.2px;" transform="translate(174.2109375,101)" y="0" x="0" id="text-entity-schedules-45caaec9-3650-577d-8d22-03cb552ce944-attr-4-comment" class="er entityLabel"/></g><g transform="translate(247.564453125,232 )" id="entity-trips-19ff57ce-4c80-56ac-b63b-1960dd35a33d"><rect height="134" width="150.2421875" y="0" x="0" class="er entityBox"/><text style="dominant-baseline: middle; text-anchor: middle; font-size: 12px;" transform="translate(75.12109375,12)" y="0" x="0" id="text-entity-trips-19ff57ce-4c80-56ac-b63b-1960dd35a33d" class="er entityLabel">trips</text><rect height="22" width="22.4609375" y="24" x="0" class="er attributeBoxOdd"/><text style="dominant-baseline: middle; font-size: 10.2px;" transform="translate(5,35)" y="0" x="0" id="text-entity-trips-19ff57ce-4c80-56ac-b63b-1960dd35a33d-attr-1-type" class="er entityLabel">Int</text><rect height="22" width="106.21875" y="24" x="22.4609375" class="er attributeBoxOdd"/><text style="dominant-baseline: middle; font-size: 10.2px;" transform="translate(27.4609375,35)" y="0" x="0" id="text-entity-trips-19ff57ce-4c80-56ac-b63b-1960dd35a33d-attr-1-name" class="er entityLabel">id</text><rect height="22" width="21.5625" y="24" x="128.6796875" class="er attributeBoxOdd"/><text style="dominant-baseline: middle; font-size: 10.2px;" transform="translate(133.6796875,35)" y="0" x="0" id="text-entity-trips-19ff57ce-4c80-56ac-b63b-1960dd35a33d-attr-1-key" class="er entityLabel">PK</text><rect height="22" width="22.4609375" y="46" x="0" class="er attributeBoxEven"/><text style="dominant-baseline: middle; font-size: 10.2px;" transform="translate(5,57)" y="0" x="0" id="text-entity-trips-19ff57ce-4c80-56ac-b63b-1960dd35a33d-attr-2-type" class="er entityLabel">Int</text><rect height="22" width="106.21875" y="46" x="22.4609375" class="er attributeBoxEven"/><text style="dominant-baseline: middle; font-size: 10.2px;" transform="translate(27.4609375,57)" y="0" x="0" id="text-entity-trips-19ff57ce-4c80-56ac-b63b-1960dd35a33d-attr-2-name" class="er entityLabel">composition_id</text><rect height="22" width="21.5625" y="46" x="128.6796875" class="er attributeBoxEven"/><text style="dominant-baseline: middle; font-size: 10.2px;" transform="translate(133.6796875,57)" y="0" x="0" id="text-entity-trips-19ff57ce-4c80-56ac-b63b-1960dd35a33d-attr-2-key" class="er entityLabel">FK</text><rect height="22" width="22.4609375" y="68" x="0" class="er attributeBoxOdd"/><text style="dominant-baseline: middle; font-size: 10.2px;" transform="translate(5,79)" y="0" x="0" id="text-entity-trips-19ff57ce-4c80-56ac-b63b-1960dd35a33d-attr-3-type" class="er entityLabel">Int</text><rect height="22" width="106.21875" y="68" x="22.4609375" class="er attributeBoxOdd"/><text style="dominant-baseline: middle; font-size: 10.2px;" transform="translate(27.4609375,79)" y="0" x="0" id="text-entity-trips-19ff57ce-4c80-56ac-b63b-1960dd35a33d-attr-3-name" class="er entityLabel">line_id</text><rect height="22" width="21.5625" y="68" x="128.6796875" class="er attributeBoxOdd"/><text style="dominant-baseline: middle; font-size: 10.2px;" transform="translate(133.6796875,79)" y="0" x="0" id="text-entity-trips-19ff57ce-4c80-56ac-b63b-1960dd35a33d-attr-3-key" class="er entityLabel">FK</text><rect height="22" width="22.4609375" y="90" x="0" class="er attributeBoxEven"/><text style="dominant-baseline: middle; font-size: 10.2px;" transform="translate(5,101)" y="0" x="0" id="text-entity-trips-19ff57ce-4c80-56ac-b63b-1960dd35a33d-attr-4-type" class="er entityLabel">Int</text><rect height="22" width="106.21875" y="90" x="22.4609375" class="er attributeBoxEven"/><text style="dominant-baseline: middle; font-size: 10.2px;" transform="translate(27.4609375,101)" y="0" x="0" id="text-entity-trips-19ff57ce-4c80-56ac-b63b-1960dd35a33d-attr-4-name" class="er entityLabel">departure_station_id</text><rect height="22" width="21.5625" y="90" x="128.6796875" class="er attributeBoxEven"/><text style="dominant-baseline: middle; font-size: 10.2px;" transform="translate(133.6796875,101)" y="0" x="0" id="text-entity-trips-19ff57ce-4c80-56ac-b63b-1960dd35a33d-attr-4-key" class="er entityLabel">FK</text><rect height="22" width="22.4609375" y="112" x="0" class="er attributeBoxOdd"/><text style="dominant-baseline: middle; font-size: 10.2px;" transform="translate(5,123)" y="0" x="0" id="text-entity-trips-19ff57ce-4c80-56ac-b63b-1960dd35a33d-attr-5-type" class="er entityLabel">Int</text><rect height="22" width="106.21875" y="112" x="22.4609375" class="er attributeBoxOdd"/><text style="dominant-baseline: middle; font-size: 10.2px;" transform="translate(27.4609375,123)" y="0" x="0" id="text-entity-trips-19ff57ce-4c80-56ac-b63b-1960dd35a33d-attr-5-name" class="er entityLabel">arrival_station_id</text><rect height="22" width="21.5625" y="112" x="128.6796875" class="er attributeBoxOdd"/><text style="dominant-baseline: middle; font-size: 10.2px;" transform="translate(133.6796875,123)" y="0" x="0" id="text-entity-trips-19ff57ce-4c80-56ac-b63b-1960dd35a33d-attr-5-key" class="er entityLabel">FK</text></g><g transform="translate(378.7421875,510 )" id="entity-lines-9e1835d6-6a42-51b6-8a91-d4356f77887f"><rect height="134" width="234.515625" y="0" x="0" class="er entityBox"/><text style="dominant-baseline: middle; text-anchor: middle; font-size: 12px;" transform="translate(117.2578125,12)" y="0" x="0" id="text-entity-lines-9e1835d6-6a42-51b6-8a91-d4356f77887f" class="er entityLabel">lines</text><rect height="22" width="53.6640625" y="24" x="0" class="er attributeBoxOdd"/><text style="dominant-baseline: middle; font-size: 10.2px;" transform="translate(5,35)" y="0" x="0" id="text-entity-lines-9e1835d6-6a42-51b6-8a91-d4356f77887f-attr-1-type" class="er entityLabel">Int</text><rect height="22" width="111.578125" y="24" x="53.6640625" class="er attributeBoxOdd"/><text style="dominant-baseline: middle; font-size: 10.2px;" transform="translate(58.6640625,35)" y="0" x="0" id="text-entity-lines-9e1835d6-6a42-51b6-8a91-d4356f77887f-attr-1-name" class="er entityLabel">id</text><rect height="22" width="22.4921875" y="24" x="165.2421875" class="er attributeBoxOdd"/><text style="dominant-baseline: middle; font-size: 10.2px;" transform="translate(170.2421875,35)" y="0" x="0" id="text-entity-lines-9e1835d6-6a42-51b6-8a91-d4356f77887f-attr-1-key" class="er entityLabel">PK</text><rect height="22" width="46.78125" y="24" x="187.734375" class="er attributeBoxOdd"/><text style="dominant-baseline: middle; font-size: 10.2px;" transform="translate(192.734375,35)" y="0" x="0" id="text-entity-lines-9e1835d6-6a42-51b6-8a91-d4356f77887f-attr-1-comment" class="er entityLabel"/><rect height="22" width="53.6640625" y="46" x="0" class="er attributeBoxEven"/><text style="dominant-baseline: middle; font-size: 10.2px;" transform="translate(5,57)" y="0" x="0" id="text-entity-lines-9e1835d6-6a42-51b6-8a91-d4356f77887f-attr-2-type" class="er entityLabel">String</text><rect height="22" width="111.578125" y="46" x="53.6640625" class="er attributeBoxEven"/><text style="dominant-baseline: middle; font-size: 10.2px;" transform="translate(58.6640625,57)" y="0" x="0" id="text-entity-lines-9e1835d6-6a42-51b6-8a91-d4356f77887f-attr-2-name" class="er entityLabel">name</text><rect height="22" width="22.4921875" y="46" x="165.2421875" class="er attributeBoxEven"/><text style="dominant-baseline: middle; font-size: 10.2px;" transform="translate(170.2421875,57)" y="0" x="0" id="text-entity-lines-9e1835d6-6a42-51b6-8a91-d4356f77887f-attr-2-key" class="er entityLabel">UK</text><rect height="22" width="46.78125" y="46" x="187.734375" class="er attributeBoxEven"/><text style="dominant-baseline: middle; font-size: 10.2px;" transform="translate(192.734375,57)" y="0" x="0" id="text-entity-lines-9e1835d6-6a42-51b6-8a91-d4356f77887f-attr-2-comment" class="er entityLabel"/><rect height="22" width="53.6640625" y="68" x="0" class="er attributeBoxOdd"/><text style="dominant-baseline: middle; font-size: 10.2px;" transform="translate(5,79)" y="0" x="0" id="text-entity-lines-9e1835d6-6a42-51b6-8a91-d4356f77887f-attr-3-type" class="er entityLabel">Int</text><rect height="22" width="111.578125" y="68" x="53.6640625" class="er attributeBoxOdd"/><text style="dominant-baseline: middle; font-size: 10.2px;" transform="translate(58.6640625,79)" y="0" x="0" id="text-entity-lines-9e1835d6-6a42-51b6-8a91-d4356f77887f-attr-3-name" class="er entityLabel">departure_location_id</text><rect height="22" width="22.4921875" y="68" x="165.2421875" class="er attributeBoxOdd"/><text style="dominant-baseline: middle; font-size: 10.2px;" transform="translate(170.2421875,79)" y="0" x="0" id="text-entity-lines-9e1835d6-6a42-51b6-8a91-d4356f77887f-attr-3-key" class="er entityLabel">FK</text><rect height="22" width="46.78125" y="68" x="187.734375" class="er attributeBoxOdd"/><text style="dominant-baseline: middle; font-size: 10.2px;" transform="translate(192.734375,79)" y="0" x="0" id="text-entity-lines-9e1835d6-6a42-51b6-8a91-d4356f77887f-attr-3-comment" class="er entityLabel"/><rect height="22" width="53.6640625" y="90" x="0" class="er attributeBoxEven"/><text style="dominant-baseline: middle; font-size: 10.2px;" transform="translate(5,101)" y="0" x="0" id="text-entity-lines-9e1835d6-6a42-51b6-8a91-d4356f77887f-attr-4-type" class="er entityLabel">Int</text><rect height="22" width="111.578125" y="90" x="53.6640625" class="er attributeBoxEven"/><text style="dominant-baseline: middle; font-size: 10.2px;" transform="translate(58.6640625,101)" y="0" x="0" id="text-entity-lines-9e1835d6-6a42-51b6-8a91-d4356f77887f-attr-4-name" class="er entityLabel">arrival_location_id</text><rect height="22" width="22.4921875" y="90" x="165.2421875" class="er attributeBoxEven"/><text style="dominant-baseline: middle; font-size: 10.2px;" transform="translate(170.2421875,101)" y="0" x="0" id="text-entity-lines-9e1835d6-6a42-51b6-8a91-d4356f77887f-attr-4-key" class="er entityLabel">FK</text><rect height="22" width="46.78125" y="90" x="187.734375" class="er attributeBoxEven"/><text style="dominant-baseline: middle; font-size: 10.2px;" transform="translate(192.734375,101)" y="0" x="0" id="text-entity-lines-9e1835d6-6a42-51b6-8a91-d4356f77887f-attr-4-comment" class="er entityLabel"/><rect height="22" width="53.6640625" y="112" x="0" class="er attributeBoxOdd"/><text style="dominant-baseline: middle; font-size: 10.2px;" transform="translate(5,123)" y="0" x="0" id="text-entity-lines-9e1835d6-6a42-51b6-8a91-d4356f77887f-attr-5-type" class="er entityLabel">DateTime</text><rect height="22" width="111.578125" y="112" x="53.6640625" class="er attributeBoxOdd"/><text style="dominant-baseline: middle; font-size: 10.2px;" transform="translate(58.6640625,123)" y="0" x="0" id="text-entity-lines-9e1835d6-6a42-51b6-8a91-d4356f77887f-attr-5-name" class="er entityLabel">duration</text><rect height="22" width="22.4921875" y="112" x="165.2421875" class="er attributeBoxOdd"/><text style="dominant-baseline: middle; font-size: 10.2px;" transform="translate(170.2421875,123)" y="0" x="0" id="text-entity-lines-9e1835d6-6a42-51b6-8a91-d4356f77887f-attr-5-key" class="er entityLabel"/><rect height="22" width="46.78125" y="112" x="187.734375" class="er attributeBoxOdd"/><text style="dominant-baseline: middle; font-size: 10.2px;" transform="translate(192.734375,123)" y="0" x="0" id="text-entity-lines-9e1835d6-6a42-51b6-8a91-d4356f77887f-attr-5-comment" class="er entityLabel">nullable</text></g><rect height="14" width="19.53125" y="175" x="312.919921875" class="er relationshipLabelBox"/><text style="text-anchor: middle; dominant-baseline: middle; font-size: 12px;" y="182" x="322.685546875" id="rel1" class="er relationshipLabel">trip</text><rect height="14" width="69.78125" y="389.7635192871094" x="147.6143341064453" class="er relationshipLabelBox"/><text style="text-anchor: middle; dominant-baseline: middle; font-size: 12px;" y="396.7635192871094" x="182.5049591064453" id="rel2" class="er relationshipLabel">compositions</text><rect height="14" width="24.921875" y="406.6127624511719" x="462.4472351074219" class="er relationshipLabelBox"/><text style="text-anchor: middle; dominant-baseline: middle; font-size: 12px;" y="413.6127624511719" x="474.9081726074219" id="rel3" class="er relationshipLabel">lines</text></svg>