<svg aria-roledescription="er" role="graphics-document document" viewBox="0 0 281.53125 474" style="max-width: 281.531px; background-color: white;" xmlns:xlink="http://www.w3.org/1999/xlink" xmlns="http://www.w3.org/2000/svg" width="100%" id="my-svg"><style>#my-svg{font-family:"trebuchet ms",verdana,arial,sans-serif;font-size:16px;fill:#333;}#my-svg .error-icon{fill:#552222;}#my-svg .error-text{fill:#552222;stroke:#552222;}#my-svg .edge-thickness-normal{stroke-width:2px;}#my-svg .edge-thickness-thick{stroke-width:3.5px;}#my-svg .edge-pattern-solid{stroke-dasharray:0;}#my-svg .edge-pattern-dashed{stroke-dasharray:3;}#my-svg .edge-pattern-dotted{stroke-dasharray:2;}#my-svg .marker{fill:#333333;stroke:#333333;}#my-svg .marker.cross{stroke:#333333;}#my-svg svg{font-family:"trebuchet ms",verdana,arial,sans-serif;font-size:16px;}#my-svg .entityBox{fill:#ECECFF;stroke:#9370DB;}#my-svg .attributeBoxOdd{fill:#ffffff;stroke:#9370DB;}#my-svg .attributeBoxEven{fill:#f2f2f2;stroke:#9370DB;}#my-svg .relationshipLabelBox{fill:hsl(80, 100%, 96.2745098039%);opacity:0.7;background-color:hsl(80, 100%, 96.2745098039%);}#my-svg .relationshipLabelBox rect{opacity:0.5;}#my-svg .relationshipLine{stroke:#333333;}#my-svg .entityTitleText{text-anchor:middle;font-size:18px;fill:#333;}#my-svg #MD_PARENT_START{fill:#f5f5f5!important;stroke:#333333!important;stroke-width:1;}#my-svg #MD_PARENT_END{fill:#f5f5f5!important;stroke:#333333!important;stroke-width:1;}#my-svg :root{--mermaid-font-family:"trebuchet ms",verdana,arial,sans-serif;}</style><g/><defs><marker orient="auto" markerHeight="240" markerWidth="190" refY="7" refX="0" id="MD_PARENT_START"><path d="M 18,7 L9,13 L1,7 L9,1 Z"/></marker></defs><defs><marker orient="auto" markerHeight="28" markerWidth="20" refY="7" refX="19" id="MD_PARENT_END"><path d="M 18,7 L9,13 L1,7 L9,1 Z"/></marker></defs><defs><marker orient="auto" markerHeight="18" markerWidth="18" refY="9" refX="0" id="ONLY_ONE_START"><path d="M9,0 L9,18 M15,0 L15,18" fill="none" stroke="gray"/></marker></defs><defs><marker orient="auto" markerHeight="18" markerWidth="18" refY="9" refX="18" id="ONLY_ONE_END"><path d="M3,0 L3,18 M9,0 L9,18" fill="none" stroke="gray"/></marker></defs><defs><marker orient="auto" markerHeight="18" markerWidth="30" refY="9" refX="0" id="ZERO_OR_ONE_START"><circle r="6" cy="9" cx="21" fill="white" stroke="gray"/><path d="M9,0 L9,18" fill="none" stroke="gray"/></marker></defs><defs><marker orient="auto" markerHeight="18" markerWidth="30" refY="9" refX="30" id="ZERO_OR_ONE_END"><circle r="6" cy="9" cx="9" fill="white" stroke="gray"/><path d="M21,0 L21,18" fill="none" stroke="gray"/></marker></defs><defs><marker orient="auto" markerHeight="36" markerWidth="45" refY="18" refX="18" id="ONE_OR_MORE_START"><path d="M0,18 Q 18,0 36,18 Q 18,36 0,18 M42,9 L42,27" fill="none" stroke="gray"/></marker></defs><defs><marker orient="auto" markerHeight="36" markerWidth="45" refY="18" refX="27" id="ONE_OR_MORE_END"><path d="M3,9 L3,27 M9,18 Q27,0 45,18 Q27,36 9,18" fill="none" stroke="gray"/></marker></defs><defs><marker orient="auto" markerHeight="36" markerWidth="57" refY="18" refX="18" id="ZERO_OR_MORE_START"><circle r="6" cy="18" cx="48" fill="white" stroke="gray"/><path d="M0,18 Q18,0 36,18 Q18,36 0,18" fill="none" stroke="gray"/></marker></defs><defs><marker orient="auto" markerHeight="36" markerWidth="57" refY="18" refX="39" id="ZERO_OR_MORE_END"><circle r="6" cy="18" cx="9" fill="white" stroke="gray"/><path d="M21,18 Q39,0 57,18 Q39,36 21,18" fill="none" stroke="gray"/></marker></defs><path style="stroke: gray; fill: none;" marker-start="url(#ZERO_OR_ONE_START)" marker-end="url(#ONLY_ONE_END)" d="M140.765625,132L140.765625,140.33333333333334C140.765625,148.66666666666666,140.765625,165.33333333333334,140.765625,182C140.765625,198.66666666666666,140.765625,215.33333333333334,140.765625,223.66666666666666L140.765625,232" class="er relationshipLine"/><g transform="translate(20,232 )" id="entity-bookings-65767926-4693-5917-9045-87758d9eb5e7"><rect height="222" width="241.53125" y="0" x="0" class="er entityBox"/><text style="dominant-baseline: middle; text-anchor: middle; font-size: 12px;" transform="translate(120.765625,12)" y="0" x="0" id="text-entity-bookings-65767926-4693-5917-9045-87758d9eb5e7" class="er entityLabel">bookings</text><rect height="22" width="73.1640625" y="24" x="0" class="er attributeBoxOdd"/><text style="dominant-baseline: middle; font-size: 10.2px;" transform="translate(5,35)" y="0" x="0" id="text-entity-bookings-65767926-4693-5917-9045-87758d9eb5e7-attr-1-type" class="er entityLabel">String</text><rect height="22" width="100.0234375" y="24" x="73.1640625" class="er attributeBoxOdd"/><text style="dominant-baseline: middle; font-size: 10.2px;" transform="translate(78.1640625,35)" y="0" x="0" id="text-entity-bookings-65767926-4693-5917-9045-87758d9eb5e7-attr-1-name" class="er entityLabel">id</text><rect height="22" width="21.5625" y="24" x="173.1875" class="er attributeBoxOdd"/><text style="dominant-baseline: middle; font-size: 10.2px;" transform="translate(178.1875,35)" y="0" x="0" id="text-entity-bookings-65767926-4693-5917-9045-87758d9eb5e7-attr-1-key" class="er entityLabel">PK</text><rect height="22" width="46.78125" y="24" x="194.75" class="er attributeBoxOdd"/><text style="dominant-baseline: middle; font-size: 10.2px;" transform="translate(199.75,35)" y="0" x="0" id="text-entity-bookings-65767926-4693-5917-9045-87758d9eb5e7-attr-1-comment" class="er entityLabel"/><rect height="22" width="73.1640625" y="46" x="0" class="er attributeBoxEven"/><text style="dominant-baseline: middle; font-size: 10.2px;" transform="translate(5,57)" y="0" x="0" id="text-entity-bookings-65767926-4693-5917-9045-87758d9eb5e7-attr-2-type" class="er entityLabel">String</text><rect height="22" width="100.0234375" y="46" x="73.1640625" class="er attributeBoxEven"/><text style="dominant-baseline: middle; font-size: 10.2px;" transform="translate(78.1640625,57)" y="0" x="0" id="text-entity-bookings-65767926-4693-5917-9045-87758d9eb5e7-attr-2-name" class="er entityLabel">payment_method</text><rect height="22" width="21.5625" y="46" x="173.1875" class="er attributeBoxEven"/><text style="dominant-baseline: middle; font-size: 10.2px;" transform="translate(178.1875,57)" y="0" x="0" id="text-entity-bookings-65767926-4693-5917-9045-87758d9eb5e7-attr-2-key" class="er entityLabel"/><rect height="22" width="46.78125" y="46" x="194.75" class="er attributeBoxEven"/><text style="dominant-baseline: middle; font-size: 10.2px;" transform="translate(199.75,57)" y="0" x="0" id="text-entity-bookings-65767926-4693-5917-9045-87758d9eb5e7-attr-2-comment" class="er entityLabel"/><rect height="22" width="73.1640625" y="68" x="0" class="er attributeBoxOdd"/><text style="dominant-baseline: middle; font-size: 10.2px;" transform="translate(5,79)" y="0" x="0" id="text-entity-bookings-65767926-4693-5917-9045-87758d9eb5e7-attr-3-type" class="er entityLabel">Json</text><rect height="22" width="100.0234375" y="68" x="73.1640625" class="er attributeBoxOdd"/><text style="dominant-baseline: middle; font-size: 10.2px;" transform="translate(78.1640625,79)" y="0" x="0" id="text-entity-bookings-65767926-4693-5917-9045-87758d9eb5e7-attr-3-name" class="er entityLabel">passengers</text><rect height="22" width="21.5625" y="68" x="173.1875" class="er attributeBoxOdd"/><text style="dominant-baseline: middle; font-size: 10.2px;" transform="translate(178.1875,79)" y="0" x="0" id="text-entity-bookings-65767926-4693-5917-9045-87758d9eb5e7-attr-3-key" class="er entityLabel"/><rect height="22" width="46.78125" y="68" x="194.75" class="er attributeBoxOdd"/><text style="dominant-baseline: middle; font-size: 10.2px;" transform="translate(199.75,79)" y="0" x="0" id="text-entity-bookings-65767926-4693-5917-9045-87758d9eb5e7-attr-3-comment" class="er entityLabel"/><rect height="22" width="73.1640625" y="90" x="0" class="er attributeBoxEven"/><text style="dominant-baseline: middle; font-size: 10.2px;" transform="translate(5,101)" y="0" x="0" id="text-entity-bookings-65767926-4693-5917-9045-87758d9eb5e7-attr-4-type" class="er entityLabel">Int</text><rect height="22" width="100.0234375" y="90" x="73.1640625" class="er attributeBoxEven"/><text style="dominant-baseline: middle; font-size: 10.2px;" transform="translate(78.1640625,101)" y="0" x="0" id="text-entity-bookings-65767926-4693-5917-9045-87758d9eb5e7-attr-4-name" class="er entityLabel">trip_id</text><rect height="22" width="21.5625" y="90" x="173.1875" class="er attributeBoxEven"/><text style="dominant-baseline: middle; font-size: 10.2px;" transform="translate(178.1875,101)" y="0" x="0" id="text-entity-bookings-65767926-4693-5917-9045-87758d9eb5e7-attr-4-key" class="er entityLabel">FK</text><rect height="22" width="46.78125" y="90" x="194.75" class="er attributeBoxEven"/><text style="dominant-baseline: middle; font-size: 10.2px;" transform="translate(199.75,101)" y="0" x="0" id="text-entity-bookings-65767926-4693-5917-9045-87758d9eb5e7-attr-4-comment" class="er entityLabel">nullable</text><rect height="22" width="73.1640625" y="112" x="0" class="er attributeBoxOdd"/><text style="dominant-baseline: middle; font-size: 10.2px;" transform="translate(5,123)" y="0" x="0" id="text-entity-bookings-65767926-4693-5917-9045-87758d9eb5e7-attr-5-type" class="er entityLabel">DateTime</text><rect height="22" width="100.0234375" y="112" x="73.1640625" class="er attributeBoxOdd"/><text style="dominant-baseline: middle; font-size: 10.2px;" transform="translate(78.1640625,123)" y="0" x="0" id="text-entity-bookings-65767926-4693-5917-9045-87758d9eb5e7-attr-5-name" class="er entityLabel">departure_date</text><rect height="22" width="21.5625" y="112" x="173.1875" class="er attributeBoxOdd"/><text style="dominant-baseline: middle; font-size: 10.2px;" transform="translate(178.1875,123)" y="0" x="0" id="text-entity-bookings-65767926-4693-5917-9045-87758d9eb5e7-attr-5-key" class="er entityLabel"/><rect height="22" width="46.78125" y="112" x="194.75" class="er attributeBoxOdd"/><text style="dominant-baseline: middle; font-size: 10.2px;" transform="translate(199.75,123)" y="0" x="0" id="text-entity-bookings-65767926-4693-5917-9045-87758d9eb5e7-attr-5-comment" class="er entityLabel"/><rect height="22" width="73.1640625" y="134" x="0" class="er attributeBoxEven"/><text style="dominant-baseline: middle; font-size: 10.2px;" transform="translate(5,145)" y="0" x="0" id="text-entity-bookings-65767926-4693-5917-9045-87758d9eb5e7-attr-6-type" class="er entityLabel">DateTime</text><rect height="22" width="100.0234375" y="134" x="73.1640625" class="er attributeBoxEven"/><text style="dominant-baseline: middle; font-size: 10.2px;" transform="translate(78.1640625,145)" y="0" x="0" id="text-entity-bookings-65767926-4693-5917-9045-87758d9eb5e7-attr-6-name" class="er entityLabel">arrival_date</text><rect height="22" width="21.5625" y="134" x="173.1875" class="er attributeBoxEven"/><text style="dominant-baseline: middle; font-size: 10.2px;" transform="translate(178.1875,145)" y="0" x="0" id="text-entity-bookings-65767926-4693-5917-9045-87758d9eb5e7-attr-6-key" class="er entityLabel"/><rect height="22" width="46.78125" y="134" x="194.75" class="er attributeBoxEven"/><text style="dominant-baseline: middle; font-size: 10.2px;" transform="translate(199.75,145)" y="0" x="0" id="text-entity-bookings-65767926-4693-5917-9045-87758d9eb5e7-attr-6-comment" class="er entityLabel">nullable</text><rect height="22" width="73.1640625" y="156" x="0" class="er attributeBoxOdd"/><text style="dominant-baseline: middle; font-size: 10.2px;" transform="translate(5,167)" y="0" x="0" id="text-entity-bookings-65767926-4693-5917-9045-87758d9eb5e7-attr-7-type" class="er entityLabel">Int</text><rect height="22" width="100.0234375" y="156" x="73.1640625" class="er attributeBoxOdd"/><text style="dominant-baseline: middle; font-size: 10.2px;" transform="translate(78.1640625,167)" y="0" x="0" id="text-entity-bookings-65767926-4693-5917-9045-87758d9eb5e7-attr-7-name" class="er entityLabel">payee_id</text><rect height="22" width="21.5625" y="156" x="173.1875" class="er attributeBoxOdd"/><text style="dominant-baseline: middle; font-size: 10.2px;" transform="translate(178.1875,167)" y="0" x="0" id="text-entity-bookings-65767926-4693-5917-9045-87758d9eb5e7-attr-7-key" class="er entityLabel">FK</text><rect height="22" width="46.78125" y="156" x="194.75" class="er attributeBoxOdd"/><text style="dominant-baseline: middle; font-size: 10.2px;" transform="translate(199.75,167)" y="0" x="0" id="text-entity-bookings-65767926-4693-5917-9045-87758d9eb5e7-attr-7-comment" class="er entityLabel"/><rect height="22" width="73.1640625" y="178" x="0" class="er attributeBoxEven"/><text style="dominant-baseline: middle; font-size: 10.2px;" transform="translate(5,189)" y="0" x="0" id="text-entity-bookings-65767926-4693-5917-9045-87758d9eb5e7-attr-8-type" class="er entityLabel">Boolean</text><rect height="22" width="100.0234375" y="178" x="73.1640625" class="er attributeBoxEven"/><text style="dominant-baseline: middle; font-size: 10.2px;" transform="translate(78.1640625,189)" y="0" x="0" id="text-entity-bookings-65767926-4693-5917-9045-87758d9eb5e7-attr-8-name" class="er entityLabel">payee_is_passenger</text><rect height="22" width="21.5625" y="178" x="173.1875" class="er attributeBoxEven"/><text style="dominant-baseline: middle; font-size: 10.2px;" transform="translate(178.1875,189)" y="0" x="0" id="text-entity-bookings-65767926-4693-5917-9045-87758d9eb5e7-attr-8-key" class="er entityLabel"/><rect height="22" width="46.78125" y="178" x="194.75" class="er attributeBoxEven"/><text style="dominant-baseline: middle; font-size: 10.2px;" transform="translate(199.75,189)" y="0" x="0" id="text-entity-bookings-65767926-4693-5917-9045-87758d9eb5e7-attr-8-comment" class="er entityLabel"/><rect height="22" width="73.1640625" y="200" x="0" class="er attributeBoxOdd"/><text style="dominant-baseline: middle; font-size: 10.2px;" transform="translate(5,211)" y="0" x="0" id="text-entity-bookings-65767926-4693-5917-9045-87758d9eb5e7-attr-9-type" class="er entityLabel">PaymentState</text><rect height="22" width="100.0234375" y="200" x="73.1640625" class="er attributeBoxOdd"/><text style="dominant-baseline: middle; font-size: 10.2px;" transform="translate(78.1640625,211)" y="0" x="0" id="text-entity-bookings-65767926-4693-5917-9045-87758d9eb5e7-attr-9-name" class="er entityLabel">payment_state</text><rect height="22" width="21.5625" y="200" x="173.1875" class="er attributeBoxOdd"/><text style="dominant-baseline: middle; font-size: 10.2px;" transform="translate(178.1875,211)" y="0" x="0" id="text-entity-bookings-65767926-4693-5917-9045-87758d9eb5e7-attr-9-key" class="er entityLabel"/><rect height="22" width="46.78125" y="200" x="194.75" class="er attributeBoxOdd"/><text style="dominant-baseline: middle; font-size: 10.2px;" transform="translate(199.75,211)" y="0" x="0" id="text-entity-bookings-65767926-4693-5917-9045-87758d9eb5e7-attr-9-comment" class="er entityLabel"/></g><g transform="translate(78.92578125,20 )" id="entity-tickets-26171265-675a-57ee-ac5f-01fb8016940f"><rect height="112" width="123.6796875" y="0" x="0" class="er entityBox"/><text style="dominant-baseline: middle; text-anchor: middle; font-size: 12px;" transform="translate(61.83984375,12)" y="0" x="0" id="text-entity-tickets-26171265-675a-57ee-ac5f-01fb8016940f" class="er entityLabel">tickets</text><rect height="22" width="36.5234375" y="24" x="0" class="er attributeBoxOdd"/><text style="dominant-baseline: middle; font-size: 10.2px;" transform="translate(5,35)" y="0" x="0" id="text-entity-tickets-26171265-675a-57ee-ac5f-01fb8016940f-attr-1-type" class="er entityLabel">Int</text><rect height="22" width="64.6640625" y="24" x="36.5234375" class="er attributeBoxOdd"/><text style="dominant-baseline: middle; font-size: 10.2px;" transform="translate(41.5234375,35)" y="0" x="0" id="text-entity-tickets-26171265-675a-57ee-ac5f-01fb8016940f-attr-1-name" class="er entityLabel">id</text><rect height="22" width="22.4921875" y="24" x="101.1875" class="er attributeBoxOdd"/><text style="dominant-baseline: middle; font-size: 10.2px;" transform="translate(106.1875,35)" y="0" x="0" id="text-entity-tickets-26171265-675a-57ee-ac5f-01fb8016940f-attr-1-key" class="er entityLabel">PK</text><rect height="22" width="36.5234375" y="46" x="0" class="er attributeBoxEven"/><text style="dominant-baseline: middle; font-size: 10.2px;" transform="translate(5,57)" y="0" x="0" id="text-entity-tickets-26171265-675a-57ee-ac5f-01fb8016940f-attr-2-type" class="er entityLabel">String</text><rect height="22" width="64.6640625" y="46" x="36.5234375" class="er attributeBoxEven"/><text style="dominant-baseline: middle; font-size: 10.2px;" transform="translate(41.5234375,57)" y="0" x="0" id="text-entity-tickets-26171265-675a-57ee-ac5f-01fb8016940f-attr-2-name" class="er entityLabel">ticket_no</text><rect height="22" width="22.4921875" y="46" x="101.1875" class="er attributeBoxEven"/><text style="dominant-baseline: middle; font-size: 10.2px;" transform="translate(106.1875,57)" y="0" x="0" id="text-entity-tickets-26171265-675a-57ee-ac5f-01fb8016940f-attr-2-key" class="er entityLabel">UK</text><rect height="22" width="36.5234375" y="68" x="0" class="er attributeBoxOdd"/><text style="dominant-baseline: middle; font-size: 10.2px;" transform="translate(5,79)" y="0" x="0" id="text-entity-tickets-26171265-675a-57ee-ac5f-01fb8016940f-attr-3-type" class="er entityLabel">String</text><rect height="22" width="64.6640625" y="68" x="36.5234375" class="er attributeBoxOdd"/><text style="dominant-baseline: middle; font-size: 10.2px;" transform="translate(41.5234375,79)" y="0" x="0" id="text-entity-tickets-26171265-675a-57ee-ac5f-01fb8016940f-attr-3-name" class="er entityLabel">qr_code_url</text><rect height="22" width="22.4921875" y="68" x="101.1875" class="er attributeBoxOdd"/><text style="dominant-baseline: middle; font-size: 10.2px;" transform="translate(106.1875,79)" y="0" x="0" id="text-entity-tickets-26171265-675a-57ee-ac5f-01fb8016940f-attr-3-key" class="er entityLabel"/><rect height="22" width="36.5234375" y="90" x="0" class="er attributeBoxEven"/><text style="dominant-baseline: middle; font-size: 10.2px;" transform="translate(5,101)" y="0" x="0" id="text-entity-tickets-26171265-675a-57ee-ac5f-01fb8016940f-attr-4-type" class="er entityLabel">String</text><rect height="22" width="64.6640625" y="90" x="36.5234375" class="er attributeBoxEven"/><text style="dominant-baseline: middle; font-size: 10.2px;" transform="translate(41.5234375,101)" y="0" x="0" id="text-entity-tickets-26171265-675a-57ee-ac5f-01fb8016940f-attr-4-name" class="er entityLabel">booking_id</text><rect height="22" width="22.4921875" y="90" x="101.1875" class="er attributeBoxEven"/><text style="dominant-baseline: middle; font-size: 10.2px;" transform="translate(106.1875,101)" y="0" x="0" id="text-entity-tickets-26171265-675a-57ee-ac5f-01fb8016940f-attr-4-key" class="er entityLabel">FK</text></g><rect height="14" width="41.625" y="175" x="119.953125" class="er relationshipLabelBox"/><text style="text-anchor: middle; dominant-baseline: middle; font-size: 12px;" y="182" x="140.765625" id="rel1" class="er relationshipLabel">booking</text></svg>